<svg xmlns="http://www.w3.org/2000/svg" id="Designer-2--Streamline-Milano.svg" viewBox="10 46.22 380 307.5"><desc>DESIGNER 2 Streamline Illustration: https://streamlinehq.com</desc><g fill="#000000"><path d="m25.5 162.32 -0.02 -0.02v0.02h0.02zM360.26 190.4c0 -1.16 -0.32 -1.44 -0.76 -1.44 -5.68 0 -11.38 0.28 -17.06 0.42 -1.28 0 -1.72 0.38 -1.7 2.28 0 4 0.38 16.66 0.5 18 0.14 0.84 16.62 0.16 18.18 0 1.18 0 1.08 -0.66 1.06 -2.7s-0.2 -12.96 -0.22 -16.56zm-0.76 -0.48c-0.26 2.58 -0.3 15.16 0 18.72q-8.74 0.28 -17.44 0.34c-0.18 -2 -0.46 -18.5 -0.8 -18.6l18.24 -0.46zM176.78 97.3c2.52 16.16 14.2 12.5 23.84 10.9 7.06 -1.16 15.32 -2.28 22.18 -3.72 10.56 -2.28 10 -7.46 8.84 -15.84 -1.32 -9.22 -2.88 -18.52 -4.3 -27.76 -1.24 -7.84 -3.62 -15.62 -13.36 -14.56 -8.98 0.98 -20.26 3.52 -29.26 5.3 -13.3 2.68 -14.14 4.76 -12.36 16.8 1.38 9.58 2.92 19.28 4.42 28.88zm9.32 -44.76c7.16 -1.34 14.34 -2.66 21.5 -4 14 -2.74 16.54 0.36 18.64 13.64q2.16 13.5 4.24 27.04c2 12.42 -1.54 13.18 -12.78 15.04 -7.18 1.2 -14.34 2.52 -21.54 3.58 -8.88 1.3 -15.76 2.18 -18.56 -10.86 -1.84 -8.6 -3.06 -19.6 -4.32 -28.52 -1.82 -12.8 -0.38 -13.42 12.82 -15.92z" stroke-width="1"/><path d="M390 207.38c0 -6.5 -0.18 -12.96 -0.4 -19.44 0 -2.96 0 -5.56 -3.66 -6 -5.7 -0.6 -58 1.88 -68.48 2.34 6.5 -5.54 52.68 -46 55.14 -49.84 1.8 -2.8 -0.2 -5.74 -2 -7.88l-10.9 -12.46c-2.18 -2.5 -4.1 -3.68 -7.14 -1.5 -2.48 1.8 -33.7 32.48 -37.24 36a418.42 418.42 0 0 0 20 -41.76c2.76 -6.4 4.4 -8.2 -2.5 -11.76a85.32 85.32 0 0 0 -14.82 -6.22c-5.12 -1.14 -6.16 2 -7.74 5.64 -4.24 -1.26 -8.48 -2.56 -12.72 -3.8 -3.64 -1.06 -4.58 0.82 -5.44 3.84 -4.58 -1.08 -8.48 -2.84 -10 3.22 -11.34 -0.88 -10 1.6 -11.2 12.88q-2.68 24.86 -4.56 49.8c-29.14 -3.52 -38.1 19.42 -36.72 20.74a40.76 40.76 0 0 0 5.78 1.88c-0.54 1.68 -0.98 3.38 -1.38 5.08a15.6 15.6 0 0 0 -3.84 -0.56c-0.48 0 -1.04 10.96 -0.84 12.3a2.92 2.92 0 0 0 2.34 2.36 31.18 31.18 0 0 0 0.28 6 40.5 40.5 0 0 1 -12.14 9.44c-3.02 1.36 20.92 9.76 27.3 10.36 0 1.52 -0.18 3.04 -0.28 4.56 -12.98 1.06 -40.12 7.66 -54 18q-3.12 -27.54 -6.28 -55.08c-1.8 -15.32 -4.54 -15.78 -18.2 -15.86 -45.36 -0.2 -92 -0.74 -136.46 -0.38 -7.3 0 -11.36 3.8 -10.72 11.58 1.1 13.52 10.22 83.44 12 99.18 1.04 10.58 4.36 12.9 14.32 13.66 8.84 0.66 18.82 0.44 27.78 0.66 -0.88 2.34 -9.04 23.78 -8.58 24.4 -1.14 3.74 -0.74 8.58 2.96 10.76h-8.36a20 20 0 0 0 -15.16 -15.16 28 28 0 0 0 -17.2 2.58c-4.64 2.4 -9.66 7.34 -10.62 12.7H10.68c-1.32 0 -0.46 14 0.44 14h294.16c27.58 0 55.18 0.24 82.76 -0.12 1.5 0 1.1 -14 0.34 -14h-10.46c1.12 -13.76 2 -26.1 3.3 -42.98 0.28 -0.92 -0.92 -0.76 -1.56 -0.76 0.24 -2.38 2 -23.08 1.16 -23.5A86.36 86.36 0 0 0 378 260c-0.96 -3.02 -1.32 -3.54 -2.44 0l-2.28 6.92c-0.26 -4.1 -0.16 -8.26 -0.74 -12.34 -0.88 -6 -10.92 -3.76 -10.86 -0.76 0.14 9.62 2 20.96 2.32 42h-2.32a192.98 192.98 0 0 0 -9.2 -25c-0.88 -2.82 -6.36 -6.6 -8.42 -9.42 -0.14 -0.18 -1.04 -1.62 -1.38 -0.86 -0.54 1.28 0.86 12.16 1.06 13.16 -0.44 0.26 7.54 20.4 8.3 22.32 -1.24 0.1 -2.22 0 -2 1.58 1.12 6 6.56 39.6 7.4 41.82h-37.2a27.78 27.78 0 0 0 18.84 -17.22c5.24 -13.6 -0.46 -31.86 -6.94 -44.12 -10 -19.14 -38.52 -41.08 -60.28 -45.48 0 -0.8 0 -1.62 -0.12 -2.38 4.4 0.96 27.08 3.36 31.74 2.42 1.24 -0.26 0.5 -14.42 0.4 -16.12 26.36 -0.72 52.22 -1.62 78.68 -2 6.34 -0.12 7.32 -2.04 7.44 -7.14zM19.18 339.54a20.46 20.46 0 0 1 10.28 -11.68l5 -0.16c-3.68 2.74 -7.52 6.98 -8 11.82zm8.12 0c2.8 -9.08 8.32 -10.72 8.96 -11.72 8 0.84 9.5 4.98 10.54 11.66zm32.9 0H48c-1.2 -6.6 -2.18 -11.02 -10.1 -12.42a21.06 21.06 0 0 0 -6.14 -0.14c12.36 -4.84 24.54 -0.68 28.58 12.6zm284.22 -66a60.76 60.76 0 0 0 -0.54 -6.32c0.66 -0.14 2.74 -1.02 2.84 -1.52a40.68 40.68 0 0 1 4.6 4.86c-2.16 0.78 -4.64 2.04 -6.9 2.96zm34.3 22.22h-8q0.54 -11.1 1.1 -22.18a75.12 75.12 0 0 0 8.34 0.3c0.38 0.4 -1.24 19.58 -1.44 21.86zm-3.72 -31 3.38 0.28 1.52 8 -7.8 -0.18c1 -2.74 1.9 -5.42 2.9 -8.12zm-11.88 -5.14c0.6 0 8.16 0.5 8.82 0l0.24 5.12a38.84 38.84 0 0 0 -8.66 0.28c-0.14 -1.82 -0.24 -3.62 -0.4 -5.42zm0.76 11.42c-0.1 -1.76 -0.22 -3.52 -0.34 -5.3 0.82 0.1 8.24 0.2 8.66 -0.38a10.18 10.18 0 0 1 -0.24 5.38c-2.68 0.06 -5.44 -0.04 -8.08 0.28zm-13 25.86c6.48 0.3 25.44 0 29.66 0 -1.56 14 -2.48 28.94 -3.56 42.66h-18.58c-1.36 -9.9 -7.52 -42.64 -7.52 -42.68zm-68 -198.56c1.28 -5.66 4.34 -4 9.06 -2.88l-1.04 3.74c-0.38 0 -3.34 -0.78 -3.8 -0.4 -0.78 0.66 -4.18 14.16 -4 16.68 0 0.88 2.1 1.12 2.94 1.3l-1.02 3.62c-1.02 -0.16 -2.9 -1.06 -3.18 0.3l-3.6 17.08c0 0.46 0.82 0.68 1.66 0.9 -0.34 1.2 -0.66 2.42 -1 3.62 -0.88 -0.18 -1.24 -0.48 -1.58 0 -1.22 6.98 -2 12.88 -3.82 19.7l-2.24 -0.54q5.38 -28.98 10.72 -58c0.32 -1.7 0.58 -3.42 0.96 -5.1zm-10.7 9.02c0.82 -8.44 1.06 -9.32 9.74 -8.64l-0.64 3.46c-0.74 0 -5.44 -0.9 -5.52 -0.14l-1.76 16.86c0 1.12 2.9 1.14 3.8 1.2 -0.22 1.16 -0.44 2.32 -0.64 3.5 -0.9 0 -3.32 -1.08 -3.44 0.3 -0.56 5.48 -1.54 11.76 -2 17.2 0 1.02 1.28 1.12 2 1.24 -0.28 1.34 -0.52 2.66 -0.76 4 -0.72 0 -1.64 -0.62 -1.7 0.2 -0.44 4.78 -0.86 9.8 -1.3 14.56 -0.94 -0.18 -1.88 -0.34 -2.82 -0.46 1.38 -17.78 3.22 -35.56 4.96 -53.3zM236 183.28c7.76 1.7 20 4.72 27.52 5.86a96.42 96.42 0 0 1 10.96 -10.2 47.2 47.2 0 0 0 -6.86 15.24l-32.86 -5.84c0.28 -1.7 0.68 -3.38 1.24 -5.06zm29.58 11.7c-0.54 2.24 -2.22 8.98 -3.58 10.5s-9.16 0.16 -10.66 -0.82c-2 -1.26 -0.46 -10.32 -2.54 -12.68zM234.4 189.4l11.5 2c-2.68 1.52 -3.72 8.6 -5.78 10.62 -1.12 1.1 -6.16 -0.36 -7.58 -0.64a91.32 91.32 0 0 1 1.86 -11.98zm-2.76 11.82c-2.56 -0.14 -1.52 -4.6 -1.04 -12.66a18 18 0 0 0 3.08 0.7 90 90 0 0 0 -2.04 11.96zM50 302.72c-9.04 -0.36 -14.64 -1.34 -15.64 -11.72 -4.28 -33.68 -8 -66.54 -12.34 -100.16C21.06 180.3 30 180 32 180c44.44 0.24 88.9 0.82 133.34 0.7 9.86 0 11.8 2.4 13.1 13.04Q184.1 244 190 294.22c0.8 8.56 -1.6 10.44 -9.28 10.38l-66.44 -0.6q3.72 -18.2 7.42 -36.46c0.12 -0.64 -2.74 -3.14 -3.4 -3.16l-25.02 -0.5c-0.36 0 -1.24 -0.12 -1.4 0.32 -1.12 0.22 -14.74 35.36 -16.18 39.12 -8.58 -0.22 -17.18 -0.5 -25.7 -0.6zm92.22 2.64c-2.42 5.1 -2 14.88 0.52 19.72 -10.9 0 -21.82 -0.36 -32.72 -0.12 1.16 -6.58 2.78 -13.38 4.12 -20q13.98 0.24 28.02 0.4zm-67.6 34c-3.42 -0.28 -6 -0.98 -7.06 -4.54 -1.44 -4.48 1.82 -10.1 1.38 -10.54 2.58 -6.94 5.08 -14 7.74 -20.82 4.98 -13.02 10.34 -26 15.82 -38.8 1.28 0.26 23.2 0.58 25.7 0.64 -0.7 0.48 -13.2 61.3 -13.2 61.3 0 1.84 -3.52 10.26 2.72 12.86zm94.36 0h-24c0 -0.84 0 -6.16 -0.76 -6.16 -8.26 -0.32 -18.48 -0.48 -26.76 0 -5.5 0 -8.62 -0.9 -7.58 -7.64l64.38 0.48c-1.38 2.72 -4.26 10.72 -5.34 13.46zm-25.6 -14.42c-2 -5.86 -3.08 -15.16 0.16 -19.7 2.7 0 43.8 0.7 47.34 0 0 0.58 15.26 7.42 17.06 8.28 -4.28 4 -3.88 16.98 0.88 21.44l-4.58 0.9c0.42 -2.12 0 -1.9 -4.8 -3.38 -2.68 -0.82 -23.38 -7.38 -24.72 -7.38zm72.38 -8.72a26.12 26.12 0 0 0 11 0.66c-0.84 4.22 -4.9 3.8 -7.04 4.62 -0.28 0.1 -0.14 0.48 0 0.5a8.5 8.5 0 0 0 6 -1.72c0 3.74 -2.46 5.26 -5.68 6.14a0.28 0.28 0 0 0 -0.18 0.3 0.26 0.26 0 0 0 0.3 0.26l1.04 -0.2a6.52 6.52 0 0 0 1.28 3.04c-3.8 4.48 -8.92 4 -13.7 4 -5.06 -7.54 -2.4 -18.5 0 -19.82l7.7 -4c1.6 -0.54 9.24 0.78 9.34 0.98s-1.4 0.9 -1.6 0.96c-2.5 0.94 -3.58 0 -5.26 1.42 -0.34 0.44 -3.86 2.76 -3.26 3zm10.98 3.08a6 6 0 0 0 1.04 -2.58l1.36 -0.28a75.72 75.72 0 0 0 2 13.56 7.52 7.52 0 0 1 -6.54 -4.56 6.62 6.62 0 0 0 2.08 -6zM176 339.5c1.08 -2.14 2.44 -5.8 2.74 -6.46 4.38 1.56 22.24 6.44 23.5 6.44 -5.26 -0.08 -24.52 0.16 -26.24 0.02zm27.42 0c0.2 -0.86 0.38 -1.74 0.56 -2.6 2.82 -0.44 4.42 -0.64 5.26 -0.8s0.7 -0.62 0.6 -0.82 -0.22 -0.3 -0.36 -0.5c4.6 0.7 10.78 -0.32 13.78 -4a11.12 11.12 0 0 0 9.1 3.54 22 22 0 0 0 2.56 5.24zM272 233.82c19.36 4.14 45.58 23.38 56.1 39.6 8 12.28 15.68 34.22 10 48.52a26.58 26.58 0 0 1 -26.44 17.52c-21.52 -1.54 -40 -23.6 -50.24 -38.12 -7.46 -10.7 -12.8 -18.38 -16 -28.28 5.54 -0.9 14.26 -7.44 16.38 -13.04a54.5 54.5 0 0 1 14 5.2 188.68 188.68 0 0 1 42.86 29.7c2 1.9 4 3.82 6 5.7 0.24 0.22 0.6 -0.16 0.4 -0.4 -11.28 -13.78 -38.6 -32.34 -55.06 -38.86a30.62 30.62 0 0 0 -8.42 -2.22c-0.34 0 -0.54 0.32 -0.64 0.6a43.4 43.4 0 0 0 -4.54 -8.9c5.14 -2 10.18 -4.34 15.38 -6.18 2.5 -0.9 0.92 -6 -2.46 -4.92 -6.34 2 -12.56 4.56 -18.82 6.9 -2.96 1.12 -0.84 0.38 -4.88 0.26 -1.62 0 -4.52 0 -5.5 1.56 -2.96 0 -5.88 1.82 -5.54 4.32l-13.32 5.46 -6.46 5.76c-0.24 0.22 0 0.72 0.3 0.72 2.96 -0.12 6 -0.34 8.9 -0.5 0 0 10.66 -4.54 11.76 -4.98 0.54 2 3.16 7.66 6 6.98a11.48 11.48 0 0 0 3.44 6.4c-0.66 0.1 -0.66 0.44 -0.5 0.86 4.48 12.52 12.6 23.64 20.28 34.4 9.06 12.72 24.4 27.22 39.84 31.62H251.2c3.8 -6.76 5.66 -31.74 2.8 -31.68h-21.8c-3.4 0 -3.38 -0.42 -3.26 5.14 -2.5 0 -8 0.26 -8.48 3.4l-3.04 -0.26c3.6 -2.86 2 -2 5.1 -2.44 6 -0.96 6.72 -4.32 -4.72 -4.5 -2 0 -7 2.9 -8.88 4.22 -0.58 -1.18 -16 -7.82 -17.2 -8.12 6.52 -1.82 6.42 -5.1 6.16 -9.1 -0.6 -6.48 -2 -15.04 -1.72 -16.32a70.9 70.9 0 0 1 9.1 -15.32c1.02 -1.36 2.14 -2.72 3.3 -4 0.24 -0.28 -0.12 -0.7 -0.4 -0.44a64.42 64.42 0 0 0 -12.16 17.8l-3.04 -26.4c20.86 -14.78 46.96 -16.5 54.22 -18 1.12 1.44 6.64 2.28 8.38 2.48 2.2 0.3 11.84 0.44 16.44 -2.14zm-30.52 31.5c-2.44 0.72 -9.6 -10.52 -0.8 -11.28 0.68 0 1.74 0.94 2.42 0.98 0.16 0 1.1 -0.44 -0.6 -1.2 -2.18 -0.94 -5.04 -2.22 -7.42 -1.3 1.02 -4 6.32 -3.52 9.36 -2.42a26.28 26.28 0 0 1 3.56 1.9c1.72 0.9 -0.58 -3.08 -7.02 -3.5 2.98 -1.68 12 -0.48 14.36 2.5a43.28 43.28 0 0 1 4.96 10c-2.38 4.64 -9.36 9.6 -14.26 11.38 -5.52 -5.3 -2.36 -7.32 -4.56 -12.66 -0.12 -0.3 -0.64 -0.12 -0.52 0.18a23.2 23.2 0 0 1 0.6 5.42zm23.88 -19.12 -2.18 0.86a4.22 4.22 0 0 0 -1.44 -3.7l2 -0.72a6.14 6.14 0 0 1 1.7 3.56zm-1 -3.8 1.48 -0.54a4 4 0 0 1 1.7 3.48l-1.3 0.52a4.76 4.76 0 0 0 -1.8 -3.46zm-40.56 20.98 -4.44 0.18c-0.14 -1.2 0 -1.02 -0.76 -2a25.62 25.62 0 0 0 3.04 -2.86 5.88 5.88 0 0 1 2.16 4.68zm49.76 -53.58c-2 4 -4 14.4 -2.62 23.64a33.3 33.3 0 0 1 -12.88 1.7c-4.38 -0.12 -8.86 -0.72 -10.44 -2.28a26.24 26.24 0 0 0 0.2 -7.02c-0.22 -0.7 -10.36 -1.04 -13.86 -12.3a33.3 33.3 0 0 1 -1.48 -10.96 48.3 48.3 0 0 0 6.32 1c4.54 0.56 4.48 -9.78 8.42 -11.62 1 0.42 1.22 1.74 1.32 2.74 0.96 10.96 -0.76 11.58 10.26 12.62 3.06 0.28 4.16 -0.8 5.18 -3.56a78 78 0 0 0 2.48 -8.58l0.76 0.14c-0.48 2 -2.66 10 1.18 9.76 0.92 0 1.52 -1.16 2.28 -2.1 1.52 -1.72 3.8 -1.72 4.56 0.52s-0.74 4.38 -1.68 6.3zM274 162c3.42 -11.32 6.48 -22.78 9.66 -34.14q4.26 -15.12 8.5 -30.24c2.38 -8.52 0.74 -7.34 17.7 -2.28 -0.72 1.6 -1.42 3.2 -2.14 4.78 -1.16 -0.38 -10.58 -4 -10.9 -2.96 -1.7 5.58 -5.38 16.28 -5.1 16.76a58.36 58.36 0 0 0 8.6 2.84c-0.5 1.12 -1 2.26 -1.52 3.4 -2.22 -0.72 -8.16 -2.98 -8.48 -2 -2 6.16 -3.4 10.9 -4.98 16.38 -0.46 1.54 4.8 2.92 5.66 3.2 -0.52 1.14 -1.02 2.3 -1.52 3.46 -1.38 -0.46 -5.4 -2.5 -6 -0.76 -1.62 5.26 -3.4 10.52 -4.66 15.88 -0.12 0.54 2.72 1.44 3.14 1.6l-2.64 6A34 34 0 0 0 274 162zm6 2.36c2.38 -4.82 4.48 -9.8 6.68 -14.72L310.6 96c3.02 -6.74 4 -7.76 10.46 -5.24a111.26 111.26 0 0 1 14.1 6.76c2.42 1.78 1.26 4.12 0.3 6.4a446.3 446.3 0 0 1 -22.46 46.8 71.66 71.66 0 0 1 -6.3 6.24 155.04 155.04 0 0 0 7 -13.86c0.28 -0.92 0.16 -0.76 -0.54 -1.18a107.5 107.5 0 0 0 -14 -6.62c-0.98 -0.34 -1.48 -0.86 -2 0.16 -2.3 5.04 -4.78 10 -6.76 15.16 -0.48 1.3 13.8 6.84 15.32 7.36l-15.46 15.04a32.4 32.4 0 0 0 -10.26 -8.6zm25.84 -7.32c-5.62 -2 -9.68 -4.44 -14.78 -6.58 2.56 -4.84 4.7 -10 6.98 -14.92 0.56 0.34 13.72 6.8 14.96 6.92zm-8.48 28.64a49.78 49.78 0 0 0 -6.62 -12.1L321.28 144l26.98 -26.22c5.42 -5.26 6.76 -7.62 11.02 -2.74 15.08 17.28 16.22 15.78 8 23.42q-22.92 21.36 -46.66 41.82l-4.74 4 -18.2 1.04a0.38 0.38 0 0 0 -0.34 0.42zm6.52 29.88a105 105 0 0 0 -6.36 -29.4l20.66 -1.02c22.12 -1.08 44.26 -2 66.4 -2.34 4.34 0 4 2 4.14 5.38 0.16 4.98 0.48 10.58 0.48 15.4 0 8.52 -0.58 9.72 -6.44 9.86zm-95.2 -126.3c3.88 1.82 7.36 -2 9.02 -5.1 -0.26 4.36 2.46 4.32 4.28 2.56 3.7 -3.56 3.74 -5.32 2.92 -4.6 -1.24 1.04 -4.3 5.72 -5.72 4.48s0.36 -10.94 0.64 -13.06a0.26 0.26 0 0 0 -0.26 -0.3 0.3 0.3 0 0 0 -0.28 0.2c-0.28 1.08 -0.54 2.16 -0.82 3.24 -2.7 -6 -14 0.16 -12.12 9.34a4.32 4.32 0 0 0 2.34 3.24zm-1.3 -6.32c0.86 -6 8.96 -10.56 10.34 -5.62a10.44 10.44 0 0 1 -5.42 10.9c-3.08 1.36 -5.56 -0.68 -4.9 -5.3z" stroke-width="1"/><path d="M247.62 206.62c-5 -1.24 -4.72 1.1 -1.16 -11.18 0 -0.28 -0.34 -0.5 -0.48 -0.22a38.6 38.6 0 0 0 -3.08 10c-0.22 1.6 3.3 2.12 4.56 2.2a0.46 0.46 0 0 0 0.46 -0.46 0.48 0.48 0 0 0 -0.3 -0.34zm135.32 -1.86c-0.1 -3.6 -0.2 -9.04 -0.22 -9.4 -0.1 -3.66 0 -6.86 -0.4 -6.82l-16.94 0.4c-1.42 0 -1.46 -0.14 -1.52 1.46 -0.16 5.28 0.42 11.7 0.54 17.16 0 1.32 -0.44 2 1.34 1.84l16.68 -1.02c0.42 -0.08 0.6 -0.28 0.52 -3.62zm-17.66 3.68a172.24 172.24 0 0 0 -0.76 -18.54l17.18 -0.42 0.26 18zM183.16 96.14a20.44 20.44 0 0 0 7.28 -1.26c0.6 -0.28 0.12 -1.18 -0.46 -0.9a8.2 8.2 0 0 1 -1.18 0.4c0.52 -3.14 0.84 -6.3 1.2 -9.46l8.34 -1.7 4.12 6.98c-0.32 0.14 -2.28 0.66 -1.58 1.12s2.16 -0.76 5.02 -0.86c0.68 0 1.08 -1.64 -2.46 -0.62 -5.24 -8.86 -10.38 -19.2 -11.44 -21.46 2.7 -0.58 1.42 -1.34 0.88 -1.18 -2 0.56 -4 1 -6 1.52 -0.32 0 -0.32 0.64 0 0.62s0.82 0 1.22 -0.16q-1.68 12.96 -3.34 26a6.88 6.88 0 0 0 -1.76 0.44 0.32 0.32 0 0 0 -0.12 0.42 0.28 0.28 0 0 0 0.28 0.1zM191.7 70a129.5 129.5 0 0 0 6 12.42c-1.7 0.34 -6.46 1.32 -7.72 1.82l1.7 -14.24zm-2.66 -0.96 2 -0.44c-0.94 7.88 -2.42 18.22 -2.88 26l-2.68 0.5c1.56 -7.28 2.52 -17.96 3.56 -26.12zm67.66 141.86a0.32 0.32 0 0 0 0 0.18c-0.1 0.28 0.14 3.6 -4 2.48a0.26 0.26 0 0 0 -0.32 0.22 0.28 0.28 0 0 0 0.14 0.28c3.56 1.62 6 -2 4.88 -3.2a0.4 0.4 0 0 0 -0.7 0.04zm85 -79.04 11.32 11.86c0.58 0.62 0.64 1.2 1.62 0.22l12 -12c0.2 -0.2 0 -0.36 0 -0.58 -0.14 -0.86 -11.22 -11.8 -11.52 -12.38s-0.4 -0.76 -0.74 -0.42l-12.64 11.8c-0.66 0.64 -0.6 0.76 0 1.48zm12.88 -12.36c3.72 4 7.46 8 11.18 12.1L354 143.38a148.18 148.18 0 0 0 -12 -12.12zM102.54 249.66c15.86 1.38 10.62 -28.82 -3.62 -27.46 -12.76 1.22 -12.22 26.08 3.62 27.46zM325.2 148a117.18 117.18 0 0 0 11.48 12.14c0.28 0.24 0.52 0 0.76 -0.22 4.32 -4.2 8.94 -8 13.22 -12.32a0.52 0.52 0 0 0 0 -0.7c-0.16 -0.22 -8.78 -10 -11.6 -12.42 -0.76 -0.64 -1.1 -0.9 -1.82 -0.22l-12 11.24a1.8 1.8 0 0 0 0 2.48zm-0.24 -0.98 13.32 -12.48a170.42 170.42 0 0 0 11.42 12.78q-6.32 6 -12.78 11.86a118.66 118.66 0 0 1 -10.3 -10.74c-0.28 -0.26 -1.12 -1.64 -1.66 -1.34zm-86.08 49.52c0.98 0 1.4 -2.92 0.66 -2.86s-1.42 2.78 -0.66 2.86zm62.06 -64.78c3.08 1.86 13.54 6.32 14.58 6.72 0.36 0.14 0.48 -0.2 0.6 -0.46 2.26 -5.18 4.74 -10.28 7.12 -15.44 0.36 -0.8 0.18 -1.1 -0.58 -1.5 -2.4 -1.3 -11.8 -5.68 -14.56 -6.72 -0.76 -0.28 -1.16 -0.38 -1.52 0.42 -2.28 5.02 -4.66 10 -6.9 15.08 -0.28 0.64 0.1 1.2 1.26 1.9zm6.68 -17.1c2 1.26 12 6.3 14.94 7.44a714 714 0 0 1 -7.12 15.38 116.86 116.86 0 0 1 -15.08 -6.96zm2.08 -3.68 14.3 6.52c1 0.46 1.2 1 1.82 -0.5L332 102c0.16 -0.36 -4.24 -2.42 -8.34 -4.48 -5.42 -2.72 -7.42 -3.64 -7.64 -3.16q-3.5 7.6 -7 15.26c-0.36 0.86 -0.22 0.96 0.68 1.36zm6.98 -16 14.5 7.02q-3.16 7.46 -6.3 15a140.7 140.7 0 0 0 -15.16 -6.72c2.28 -5.12 4.64 -10.16 6.96 -15.22zm-63.04 104.06c0.6 0.22 1.72 -2.52 0.64 -2.8s-1.44 2.52 -0.64 2.8zM25.48 162.3c0.52 0 4.68 -5.02 5.58 -5.76s0.26 -1.32 -0.2 -1.86a34 34 0 0 0 -2.66 -2.44C40.46 136.12 73.76 110 95.08 112.48a4.96 4.96 0 0 0 9.34 3.28c14 9.32 2.64 30 15.48 39.38 -2.18 5.8 6.82 8.86 8.7 3.38 19.84 2.98 44.9 -13.3 59.52 -24.9a30.78 30.78 0 0 0 2.64 2.48c0.56 0.46 1.04 0 1.52 -0.38 1.38 -1.1 4.66 -3.78 5.02 -4.2s-3.1 -4.56 -4.88 -6.24c-0.92 -0.88 -1.1 -0.76 -2 0 -1.84 1.52 -5.38 4 -5.24 4.6a24.42 24.42 0 0 0 2.22 2.9c-14.56 11.46 -38.94 27.36 -58.54 24.62a4.66 4.66 0 0 0 -8.46 -3.26c-11.16 -8.58 -2.2 -26.78 -12.6 -37.02l21.9 9.86a4.22 4.22 0 1 0 0.48 -0.98l-25.42 -11.38A4.96 4.96 0 0 0 96 110.84c-8.62 -3.62 -17.24 -7.26 -26 -10.42a4.3 4.3 0 0 0 -8 -3.28c-2.34 4.34 4.66 8.84 7.54 4l24.62 10.12c-20.76 -1.52 -55.4 24.26 -66.46 40.46 -0.52 -0.5 -3.26 -2.96 -3.72 -2.58a76.96 76.96 0 0 0 -5.26 6.34c-0.62 0.84 6.26 6.72 6.76 6.82zM186.32 130c0.86 -0.96 4.6 -3.68 5.24 -4.3a64.92 64.92 0 0 1 4.84 5.38 53.82 53.82 0 0 1 -5.22 4.26A61.04 61.04 0 0 1 186.32 130zM120.88 155.36a3.68 3.68 0 0 1 6.94 2.32c-1 4.7 -9.16 2.64 -6.94 -2.32zm9.86 -28.28a3.2 3.2 0 0 1 6 1.42c-0.04 5.5 -8.2 3.5 -6 -1.42zm-62 -26.68c-1.8 3.82 -7.4 0.12 -5.88 -2.74a3.24 3.24 0 0 1 5.88 2.74zM24.3 150.1c0.62 0.92 4.96 4.46 6 5.5 -1.52 1.62 -3.26 4 -4.78 5.72a60.44 60.44 0 0 1 -6 -6 60.16 60.16 0 0 0 4.78 -5.22zm312.2 41.38c-0.12 -1.44 0.2 -2 -1.52 -2 -5.52 0 -11.06 0 -16.54 0.58 -1.38 0.12 0 18 0.24 19.22 0 0.46 0.46 0.36 0.8 0.32 1.52 -0.12 12.1 0.68 16 0.36 2 -0.18 1.68 -1.3 1.64 -2.98 -0.16 -3.82 -0.32 -12.14 -0.62 -15.5zm-16.92 17.42c-0.8 -6.52 -0.34 -12 -0.7 -18.12 5.64 0.2 11.28 -0.14 16.92 -0.28 0 0.7 0 17.16 0.5 18.48zm0.18 -33.84c0.32 0.28 0.58 0 0.8 -0.3 1.16 -1.22 11.1 -8.9 12.7 -11.06 0.4 -0.58 0 -0.68 -0.38 -1.22 -2.62 -3.26 -7.7 -8.38 -10.52 -11.28 -0.98 -1.02 -1.32 -1.68 -2.48 -0.62 -3.88 3.62 -7.88 7.16 -11.56 10.98 -0.8 0.86 -0.68 1.1 0.18 2 3.34 3.24 8.74 9.38 11.26 11.5zm1.22 -24.24c0.38 0.5 10.5 11.68 11.66 12.28l-12.52 11.08c-4.64 -4 -7.54 -8 -11.6 -12 4.3 -3.48 8.36 -7.54 12.46 -11.36zm-68.58 63.24zm88.84 -4.46h-0.02z" stroke-width="1"/></g></svg>