<svg xmlns="http://www.w3.org/2000/svg" id="About-Our-Team-2--Streamline-Milano.svg" viewBox="9.7 63.37 380.62 273.45"><desc>About Our Team 2 Streamline Illustration: https://streamlinehq.com</desc><g fill="#000000"><path d="M113.72 121.36c-0.36 0.66 -3.38 6.5 -1.74 8.96a2.96 2.96 0 0 0 3.14 1.3 0.52 0.52 0 0 0 0.38 -0.88c-0.34 -0.34 -1.72 0 -2.3 -1.14 -0.96 -1.52 1 -6.38 1.46 -7.82a0.52 0.52 0 0 0 -0.94 -0.42zm-6.08 -3.2a5.64 5.64 0 0 1 6 0.46c0.5 0.32 1.08 -0.42 0.66 -0.88a5.16 5.16 0 0 0 -7.26 -0.54c-0.46 0.42 0.04 1.24 0.6 0.96zm8.74 0.62a6.52 6.52 0 0 1 6.62 0.28 0.58 0.58 0 0 0 0.74 -0.86 5.64 5.64 0 0 0 -7.86 -0.32 0.52 0.52 0 0 0 0.5 0.9zm-5.84 4.14c0.14 -2.26 -1.82 -2.32 -2 -0.12s1.88 2.34 2 0.12zm8.76 -1.14c-1.3 0 -1.5 3.3 -0.2 3.36s1.48 -3.28 0.2 -3.36zm-4.62 12.4A11.4 11.4 0 0 1 109.06 132a0.58 0.58 0 0 0 -0.68 0.48c-0.56 3.22 0.52 5.22 3.2 6a0.52 0.52 0 0 0 0.3 -0.98 3.22 3.22 0 0 1 -2.46 -3.84 10.3 10.3 0 0 0 5.24 1.52 0.52 0.52 0 0 0 0.02 -1zM208 142.94a0.52 0.52 0 0 0 -0.4 -0.96 1.4 1.4 0 0 1 -1.4 0c-1.04 -0.84 -0.66 -4 -0.52 -5.34a0.5 0.5 0 0 0 -1 -0.18c-1.04 3.9 -0.26 8.12 3.32 6.48zm2.22 -3.32a0.96 0.96 0 0 0 0.82 -0.58c0.54 -1.02 0 -2.78 -0.88 -2.76 -1.4 0.04 -1.34 3.34 0.06 3.34zm-8.58 -3.12c-1.4 0 -1.36 3.34 0 3.34s1.44 -3.4 0 -3.34zm4.96 12.96a4 4 0 0 0 4.74 -3.46 0.54 0.54 0 0 0 -0.46 -0.58c-0.38 0 -0.5 0.22 -0.7 0.52a4.76 4.76 0 0 1 -3.6 2.48 0.52 0.52 0 0 0 0.02 1.04zm102.82 -10.1a0.5 0.5 0 0 0 -0.68 0.24 0.5 0.5 0 0 0 0.24 0.68 6 6 0 0 0 6.86 -2.28 4.46 4.46 0 0 1 -1.82 5.48 0.52 0.52 0 0 0 0.52 0.88c2.6 -1.34 3.82 -4.16 2 -8.26a0.66 0.66 0 0 0 -1.24 0 5.08 5.08 0 0 1 -5.88 3.26zm2.18 -4.16a0.5 0.5 0 0 0 -0.28 -0.98c-4 1 -3.9 -2.16 -3.44 -6.2a0.52 0.52 0 0 0 -1.02 -0.16c-1.16 5.06 -0.16 8.84 4.74 7.34zm0.86 -6.8c0.92 0.88 2 0 1.7 -1.56 -0.22 -0.9 -0.88 -1.48 -1.5 -1.34 -1.02 0.24 -1.06 2.06 -0.2 2.9zm-9.06 2.7c1 -0.24 1.06 -2 0.18 -2.88a0.92 0.92 0 0 0 -1.52 0.12c-0.66 1.06 0.2 3.02 1.34 2.76zm21.22 64.6a3.14 3.14 0 0 0 -3.26 -2.8 0.42 0.42 0 0 0 -0.46 0.38 0.44 0.44 0 0 0 0.4 0.46 2.34 2.34 0 0 1 2.5 2 0.42 0.42 0 0 0 0.82 -0.04z" stroke-width="1"/><path d="M390 301.22h-27.1c0.26 -17.74 0.28 -30 0.28 -30 5.66 -13.08 7.36 -31.3 -0.36 -40.92l-0.14 -4.16h6.44a0.28 0.28 0 0 0 0.28 -0.18 22.8 22.8 0 0 0 0.12 -11.16 0.66 0.66 0 0 0 -0.62 -0.48h-7.12c6.38 -2 10.78 -7.2 12.78 -15.02 3.84 -15.02 -5.24 -35.7 -16 -44.16A43.5 43.5 0 0 0 326.18 146a48.28 48.28 0 0 1 -1.8 -12.3 4.7 4.7 0 0 0 2.66 -6.5c1.1 -0.8 2.86 -2.92 1.14 -7.38a6 6 0 0 0 2 -8c-1.5 -2.56 -3.56 -4.36 -1.68 -5.66a0.62 0.62 0 0 0 -0.14 -1.08 8.2 8.2 0 0 0 -8.98 2.56 5.22 5.22 0 0 0 -3.2 -2 4.6 4.6 0 0 1 2.66 -2.42 0.52 0.52 0 0 0 0 -0.92c-4.48 -2.38 -13 -0.48 -17.04 4.92a12.1 12.1 0 0 1 1.18 -3.76 0.56 0.56 0 0 0 -0.64 -0.8c-13.74 3.44 -13.9 17.76 -5.02 21.06v2.12a4.48 4.48 0 0 0 -2.54 5.42 4.14 4.14 0 0 0 4.14 3.62c2.54 9.66 8.48 12.34 10.96 12.64a4.38 4.38 0 0 0 0 0.72c-12 -0.24 -24.16 4.42 -31.64 12.14 -13.66 14 -19.56 47.22 -1.38 53.74h-18.24c10.44 -10 -1.4 -32.36 -11.16 -43.36 6.16 -19.24 -20.46 -15.16 -25.8 -37.84 -2.78 -11.84 -8.52 -17.6 -17.52 -17.6 -15.62 0 -15.02 15.2 -21.02 23.82a119.3 119.3 0 0 0 1.66 -60.36 0.66 0.66 0 0 0 -0.48 -0.48l-0.86 -0.3v-1.44c2 -1.42 4 -4.56 2.66 -6.64a2.36 2.36 0 0 0 -1.44 -1.06 2.46 2.46 0 0 0 -3 -2.5 2.1 2.1 0 0 0 -3.34 -1.14c-1.16 -1.4 -3.88 -0.72 -4 2.74 -4.56 2 -3.78 7.06 1.5 8.66v1.54l-0.82 0.1a0.68 0.68 0 0 0 -0.52 0.46C167.22 102.54 159.18 119.3 150 130c-8 9.2 -16.96 13.84 -28 14.6l-2.14 -0.96a15.74 15.74 0 0 0 0 -1.68c3.48 -1.62 6 -5.1 7.52 -10.62 3.4 1.38 5.86 -4.22 4.58 -6.84a2.1 2.1 0 0 0 -3.14 -0.84c0.96 -9.58 -1.62 -18 -11.3 -18.82 -11.84 -0.82 -14.78 7.6 -16 16.24a2 2 0 0 0 -1.8 -0.86c-3.78 0.14 -3.02 9.1 1.32 8.5 0 0.56 0 1.08 0.24 2.92a14.48 14.48 0 0 0 4.16 8.72c-0.24 0.96 -0.48 2.76 -0.6 3.66l-2 0.66c-28.38 -2.38 -42.26 -35.58 -52 -67.74 -0.14 -0.48 -0.58 -0.48 -0.9 -0.5v-1.06c5.14 -1.54 6.22 -6.58 1.5 -8.64 0 -2.56 -1.54 -3.56 -2.84 -3.34a1.8 1.8 0 0 0 -1.18 0.62 2 2 0 0 0 -3.34 1.12 2.46 2.46 0 0 0 -3 2.5 2.32 2.32 0 0 0 -1.74 1.8 6.22 6.22 0 0 0 2.98 6v0.92c-0.52 0 -1.02 0 -1.54 0.12a0.66 0.66 0 0 0 -0.56 0.54c-3.7 21.62 -4 40.3 -1.02 55.52 4.34 21.84 15.44 37.18 31.3 43.22a111.48 111.48 0 0 0 1.06 38.58h-11.2a105.48 105.48 0 0 0 0.16 -20c-0.22 -1.7 -1.28 -1.84 -2.18 -2a50.58 50.58 0 0 0 -16.9 0c-1.34 0.26 -1.88 0.8 -2 2 0 0.66 -0.16 1.5 -0.22 2.54a6 6 0 0 0 -6 2.92c-3.04 4.72 -0.52 11.82 6 11.72a17.32 17.32 0 0 0 0.38 2.92h-6.36a0.66 0.66 0 0 0 -0.62 0.52 27.68 27.68 0 0 0 0 10.82 0.66 0.66 0 0 0 0.64 0.56h6.4c-0.6 21.52 -0.68 44.68 -0.24 74.98H10a0.3 0.3 0 0 0 -0.3 0.3v0.38a0.3 0.3 0 0 0 0.3 0.3h29.42c0.22 15.74 0.58 30.44 0.62 32.44a0.52 0.52 0 0 0 0.52 0.5h6a0.5 0.5 0 0 0 0.52 -0.48c0.2 -2.76 1.12 -15.56 2.2 -32.4h15.66c2.48 4.52 5.34 9.74 8 15.06 -3.38 1.88 -10 6.52 -10.56 10a5.06 5.06 0 0 0 2.96 4.96c4 1.06 18.84 -3.28 21.26 -7.9a67 67 0 0 0 -2.36 -16.88c0.38 -0.24 0.72 -0.46 1 -0.68s0.2 0 0.6 -4.46h19.54l0.68 10.62c-10.4 0.9 -14.44 5.72 -15.7 7.78a7.18 7.18 0 0 0 -0.88 6.44 3.48 3.48 0 1 0 4.9 -3.3c0.82 -3.74 5.58 -6.54 12 -7.06 0 1.26 0.14 6 0.54 8.78a4.7 4.7 0 0 0 -0.16 4 2.32 2.32 0 0 0 2.22 1.38h1.34a2.52 2.52 0 0 0 2.52 -2.54 38.62 38.62 0 0 0 -2.18 -11.74c3.54 0 12.98 0.7 14 5.78a3.48 3.48 0 1 0 3.58 3.56 7.04 7.04 0 0 0 0.58 -5.72c-0.94 -2.64 -3.58 -4.7 -7.88 -6.14a38 38 0 0 0 -9.58 -1.46l1.12 -10.46h17.88c0.66 6.42 1.32 12.94 1.42 18.94a12 12 0 0 0 -2.26 8.68c1.34 7.38 11.1 8.4 13.88 3.3 1.84 -3.4 0.4 -7.88 -1.24 -11.4a35.22 35.22 0 0 0 3 -8.46c2.66 0 2.66 0 2.74 -0.46a51.3 51.3 0 0 1 3.34 -10.44H186c2.76 4.56 3.86 6.42 3.86 6.42 -2.52 1.48 -11.82 7.4 -11.08 13.6a3.82 3.82 0 1 0 6.6 -2.6 19.66 19.66 0 0 1 6.58 -7.4c1.82 3.18 3.32 5.88 4.66 8.48 -3.64 2.74 -8 6.64 -8.92 9.88a2.34 2.34 0 0 0 0.52 2.54c1.84 1.52 6.68 -0.54 8.12 -1.2 0.1 0 9.52 -4.56 10.7 -7.86 4.48 0.84 2.18 -10 1.1 -14.46l3.32 0.26c1.28 17.8 0.98 12.76 0.98 13.68 0.44 3.82 17.08 10.96 19.9 7.68s-6.16 -9.08 -9.72 -11.26c2.26 -6 5.22 -12.64 7.58 -17.8h44.62c2.68 5.24 7.9 15.38 7.9 15.38a0.66 0.66 0 0 0 0.8 0.34l2.22 -0.68a34.64 34.64 0 0 0 2.54 5.28c-10.3 5.48 -14 14 -5.18 14 6.46 0 18.62 -4.88 18.92 -7.02a15.14 15.14 0 0 0 -1 -7.8v-2.24c2.36 -3.16 10.28 -4.48 12 -4.74 0 0.88 0 3.68 -0.12 12a3.06 3.06 0 1 0 6.12 0c0 -3.88 0.44 0 -1.58 -12.18a35.2 35.2 0 0 1 8.44 1.3s-0.48 1.86 -0.66 2.64a10.94 10.94 0 0 0 -1.74 7.8c1 2 5.12 4.36 8.4 6 4.78 2.32 13.54 6 14.1 0.78 0.4 -4.44 -6.3 -10.68 -8.16 -12.3a26.88 26.88 0 0 0 2.76 -4.62c1.38 0.22 1.26 0.48 2.98 -2.62 0.4 -0.72 5.6 -10.22 6.14 -11.24h3.28c0.9 14 2.26 32.44 2.26 32.44a0.5 0.5 0 0 0 0.52 0.48h6a0.52 0.52 0 0 0 0.52 -0.5c0 -2 0.4 -16.54 0.64 -32.44H390c0.44 -0.28 0.4 -1.34 0 -1.34zm-261.62 -176c0.9 -1.46 2 -1.24 2.36 -0.46a5.08 5.08 0 0 1 -2 5.44 1.68 1.68 0 0 1 -1.24 0 45.76 45.76 0 0 0 0.86 -4.92zm-27.54 2.34c-1.46 0.18 -2.16 -1.18 -2.42 -2.62s-0.2 -3.7 1.18 -3.78c0.98 0 1.4 1.2 1.52 1.68a46.16 46.16 0 0 0 -0.28 4.72zm-62 80.68a4.16 4.16 0 0 1 -3.18 -1.7C34 204 35.56 199.42 38.8 200a67.66 67.66 0 0 1 0 6.78c0.08 0.7 0.08 1.22 0.06 1.46zm272.56 -84.6c2.24 -0.88 5.22 -1.04 6.44 0.64a5.16 5.16 0 0 1 0.82 3.36c-0.44 2.54 -5.26 3.64 -7.36 2.66a4.1 4.1 0 0 1 -2.14 -3.7 3.2 3.2 0 0 1 2.26 -2.96zm-11.88 -4.84c3.26 -6.26 10.5 -1.46 16.84 -2.78a10.5 10.5 0 0 0 1.88 6.88c-2 -1.74 -5.4 -1.28 -7.3 -0.48A4 4 0 0 0 308 126a1.88 1.88 0 0 0 -2.52 0.46c-1.42 -2.2 -4.44 -2.12 -6.88 -1.28a11.24 11.24 0 0 1 0.94 -6.38zm-3.48 12a3.22 3.22 0 0 1 1.48 -3.78 54.32 54.32 0 0 0 1.16 6.44c-1.46 -0.24 -2.2 -1.02 -2.68 -2.72zm2.62 -4.36c1.68 -0.64 4.58 -1.16 5.78 0.62 2 2.76 0.72 6.18 -4.46 6.44a69.68 69.68 0 0 1 -1.3 -7.12zm1.62 8.26c4.46 -0.34 7.08 -2.76 5.72 -6.96 0.14 -0.76 1.14 -1.2 2 -0.42a4.96 4.96 0 0 0 2.8 4.1c2.9 1.28 8.52 -0.28 9 -3.54a6 6 0 0 0 -0.48 -3.34 18 18 0 0 1 1.76 2.82 2.78 2.78 0 0 0 -0.24 0.56c-0.22 0.62 0.6 1.2 1.02 0.38 1.06 -2 2.88 -2 3.66 -1.14a3.42 3.42 0 0 1 -3.12 5.48c-0.64 0 -0.86 0.92 -0.24 1.08a4.2 4.2 0 0 0 1.12 0.14 32.22 32.22 0 0 0 2 12.94c-1.18 6.8 -2.8 8.16 -6.86 11.44a0.3 0.3 0 0 0 0 0.52c2.24 0.86 2.7 4 2.4 6.24 -0.1 0.86 -0.62 1.5 -0.9 1.5s-0.42 -0.38 -0.5 -1.2a7.48 7.48 0 0 0 -2.36 -5.2 0.3 0.3 0 0 0 -0.46 0 7.24 7.24 0 0 0 -1.04 5.52c0.2 1.46 -1 1.3 -1.38 -0.2 -0.54 -2 -0.58 -5.04 1.08 -6.4a0.32 0.32 0 0 0 0 -0.48c-3.12 -2.2 -3.86 -4.12 -4.48 -8.78a6.32 6.32 0 0 0 0.12 -2.3 8.52 8.52 0 0 0 2.14 0 0.52 0.52 0 0 0 -0.14 -1.02c-8.6 0.42 -12 -9.7 -12.6 -11.8zM272.6 209.6c-11.14 -10.54 -4 -37.38 6.54 -48.3a43.24 43.24 0 0 1 28 -12.16 22 22 0 0 0 3.4 15c4 5.4 10.42 4.94 14.56 0.34s5.62 -13.04 6 -17.64a42.86 42.86 0 0 1 26.82 9.3c10.3 8.14 19.06 28.18 15.38 42.84 -2.28 9.14 -8.5 14.62 -17.16 15.18a3.42 3.42 0 0 0 0.84 -2.96c1.74 -6 4.38 -28.62 2.2 -35.22 -1.26 -3.84 -5.12 -3.8 -12.78 -3.7h-2.94a54.76 54.76 0 0 1 1.68 -12.7c0.32 -0.94 -0.56 -1.24 -0.9 -0.48a36.96 36.96 0 0 0 -2 13.18c-8.32 0 -23 0.26 -30.58 1.1 -6 0.7 -6.52 2.98 -7.26 9.5 -0.18 1.68 -0.34 3.5 -0.48 5.68 -2 -0.34 -4.42 -0.72 -7 -0.96A37.88 37.88 0 0 0 294 161.8a0.48 0.48 0 0 0 -0.7 -0.2 0.46 0.46 0 0 0 -0.18 0.6 41.88 41.88 0 0 1 2.48 25.32 34.22 34.22 0 0 0 -16 2.16c-0.58 0.24 -0.24 1.22 0.34 1 12.26 -4.26 24.2 -0.42 36.4 1.36 0.2 2.14 0.32 4.32 0.32 6.46 -10.18 4.86 -18.88 13.82 -30.44 15.02a16.54 16.54 0 0 1 -13.62 -3.92zm55 4.4h-30.68a1.52 1.52 0 0 1 1.06 -2.32h29.78a3.04 3.04 0 0 0 -0.16 2.32zm-28.56 -3.5c1.4 -0.76 2.68 -1.52 4 -2.38v2.38zm5.1 -3.02 1.5 -0.96c0 1.7 0 3.12 0.14 4h-1.6c-0.04 -0.9 -0.04 -1.92 -0.04 -3zm19.46 -10c1.76 2.28 1.46 3.82 -1.16 1.58 -1.8 -1.56 -1.84 -2.14 -2.14 -2.1a12.14 12.14 0 0 0 -2.78 0.62 22.76 22.76 0 0 0 -0.3 -5.22c4.16 -0.24 4 -2.6 6.26 -1.6a0.24 0.24 0 0 0 0.26 0c0.7 -0.8 2.78 -3.12 3.24 -2.14 0.12 0.26 -0.18 1.06 -1.46 2.44a1.04 1.04 0 0 0 -0.2 -0.22 0.42 0.42 0 1 0 -0.6 0.56 5.88 5.88 0 0 1 0.92 4.68 0.42 0.42 0 1 0 0.82 0 8.14 8.14 0 0 0 -0.64 -4.64 20.58 20.58 0 0 0 2.7 -0.7c2.28 -0.88 2.48 1 -1.24 1.86a0.22 0.22 0 0 0 0 0.44c1.22 -0.1 4.68 -0.3 3.8 0.76 -0.36 0.44 -1.56 0.72 -3.76 0.86 -0.2 0 -0.22 0.22 -0.36 0.68a0.22 0.22 0 0 0 0.14 0.28c0.2 0 4 0.54 3.08 1.42 -0.3 0.3 -1.56 0.88 -6.44 0a0.22 0.22 0 0 0 -0.14 0.4zm5.82 14.2h26.34c-0.16 1.74 -1.14 2.5 -3.26 2.6s-11.58 -0.1 -23.48 -0.14a2.18 2.18 0 0 1 0.4 -2.5zm24.24 -1.06a264.42 264.42 0 0 0 2.56 -27.8c0.12 -3.04 -0.3 -4.94 -1.32 -6 -1.38 -1.48 -4 -1.32 -6 -1.38 -3.7 -0.1 -29.28 -0.12 -37.24 0.92 -3.86 0.5 -4.26 2.16 -4.8 6.92 -0.14 1.2 -0.3 3.28 -0.48 5.86l-1.54 -0.28c0.18 -2.24 0.38 -4 0.58 -5.74 0.8 -6.34 1.18 -7.86 6.28 -8.44 6.68 -0.7 18.5 -0.84 25.22 -0.96 16.96 -0.32 19.58 -0.38 20.78 2.78 2 5.08 -0.56 27.84 -1.8 34.16zm-58 3.38h-4.88a31.56 31.56 0 0 0 4.88 -1.74 2.6 2.6 0 0 0 -0.04 1.74zm-51.1 -44.52c9.24 9.36 22.1 31.68 14.16 42a15.04 15.04 0 0 1 -10.82 5.14A45.7 45.7 0 0 1 215.4 208c0.3 -2 0.7 -4 1.2 -6.12 12.6 -2.26 16.4 -5.16 26.58 -4.42a0.52 0.52 0 0 0 0.12 -1.02 28.12 28.12 0 0 0 -11.16 0.24c-2.18 -4.86 -8.52 -20.3 -5.66 -29.72a0.52 0.52 0 0 0 -0.98 -0.34c-3.3 8.82 2 23.52 5.32 30.38 -2.88 0.68 -7.24 2 -14 3.7a285.2 285.2 0 0 1 -4 -42.24c0.36 -0.66 0.7 -1.34 1 -2 10.54 -0.36 22.6 4.74 30.74 13.02zm-35 30a9.24 9.24 0 0 0 -2.52 -2.4c-1.2 -0.88 -0.42 -1.74 3.18 0.6a0.2 0.2 0 0 0 0.3 -0.28c-1.32 -2 -3.34 -2.82 -3.4 -3.48s2.68 0.16 4.62 2.16a21.48 21.48 0 0 1 3.42 5.62c0 0.2 0.32 0 0.68 0a16.12 16.12 0 0 0 -1.2 6c-5.28 -4.26 -4.62 -6 -4.98 -6l-1.5 -0.98c-1.66 -1.06 -1.52 -1.64 -0.42 -1.44a5.4 5.4 0 0 1 1.56 0.52 0.22 0.22 0 0 0 0.26 -0.28zM201.7 134a4.24 4.24 0 0 1 1.14 0.38 0.52 0.52 0 0 0 0.7 -0.7 2.52 2.52 0 0 0 -1.08 -1.06 26.42 26.42 0 0 0 2 -5.18 17.7 17.7 0 0 0 6.06 4.56 2.78 2.78 0 0 0 -2.76 1.34 0.54 0.54 0 0 0 0.64 0.76 3.64 3.64 0 0 1 3.48 0 0.54 0.54 0 0 0 0.72 -0.72 2.34 2.34 0 0 0 -0.56 -0.7 17 17 0 0 0 3.48 0.84c2.8 13.5 -2.62 17.28 -2.6 18.12l0.16 4c-0.6 1.2 -3.68 7.02 -7.02 7.02 -2.44 0 -4 -3.1 -5 -5.34 0.18 -4.36 0.34 -4.48 0 -4.52a21.04 21.04 0 0 1 -6.18 -12.52 16 16 0 0 0 6.82 -6.28zM196 201.58l1.38 0.36a0.22 0.22 0 0 0 0.26 -0.14c1.4 -3.84 5.32 -8.24 6.4 -7.64 0.66 0.4 -1.44 2 -2.16 3.82a0.22 0.22 0 0 0 0.36 0.24c2.72 -2.78 4.42 -1.86 3.56 -1.14a8.26 8.26 0 0 0 -2.74 2.2 0.22 0.22 0 0 0 0.26 0.34c1.38 -0.66 3.12 -1.24 3.02 -0.34 0 0.32 -3.14 1.66 -3.14 2.22a6.16 6.16 0 0 1 -0.2 1.6 5.76 5.76 0 0 1 -3.46 3.16c-0.74 0.68 -1.52 1.34 -2.32 2a14 14 0 0 0 -1.22 -6.68zm3 -44.92a273.24 273.24 0 0 1 1.34 38.98 17.64 17.64 0 0 0 -3.3 5.44A128.32 128.32 0 0 0 182 196.52c3.14 -7.3 7.4 -21.52 4 -30.3a0.52 0.52 0 0 0 -0.98 0.34c2.46 8 -0.9 20.56 -4.18 29.76a25.3 25.3 0 0 0 -12 0.52 0.5 0.5 0 0 0 0.28 0.98c8.7 -2 17.12 1.42 26 3.86a24.54 24.54 0 0 1 1.2 6.8c-15.22 11.52 -44 14.24 -45.4 -4 -0.98 -13.1 12 -31.68 21.88 -39.24a43.08 43.08 0 0 1 26.2 -8.58zM182 67.3a1.46 1.46 0 0 1 1.82 1.54 6.6 6.6 0 0 0 -1.24 0.3 0.42 0.42 0 0 0 -0.7 -0.42c-1.18 1.48 -2 1.88 -2.2 1.76s-0.16 -0.26 0 -0.72A3.3 3.3 0 0 1 182 67.3zm-2.2 -1.52a1.08 1.08 0 0 1 1.08 0.96 4.52 4.52 0 0 0 -1.76 1.82 4.94 4.94 0 0 1 -0.46 0.56 1.3 1.3 0 0 0 -0.84 -1.58c0.56 -1.18 1.22 -1.76 1.9 -1.76zm-3.88 0.38a1.26 1.26 0 0 1 1.84 -0.2 6.16 6.16 0 0 0 -0.84 1.44 6 6 0 0 0 -1.48 0.22 3.22 3.22 0 0 1 0.4 -1.46zm-2.18 3.34a6 6 0 0 1 3.2 -1.12c0.22 0 0.6 0 0.72 0.18 0.54 0.74 -2 2 -2.84 2.52a0.42 0.42 0 0 0 0 0.78 4 4 0 0 1 2.66 2.38 0.4 0.4 0 0 0 0.52 0.24 0.42 0.42 0 0 0 0.28 -0.48 3.62 3.62 0 0 0 -2 -2.66 8 8 0 0 0 1.48 -1 1.1 1.1 0 0 0 0.92 -0.16 1.12 1.12 0 0 0 0.9 1.2c-0.94 1.26 -0.38 2 0.48 2.16a2 2 0 0 0 -0.46 2.4c0.22 0.5 0.92 0.26 0.7 -0.24s-0.12 -1.44 2.66 -3.24a0.42 0.42 0 0 0 -0.38 -0.74c-2.36 1.18 -2.66 0.88 -2.66 0.88s0.88 -1.48 2.22 -2.24c2.6 -1.44 4 0 3.18 2.18 -1.02 2.72 -2.94 2.92 -2.9 3.66v1.74a29.68 29.68 0 0 0 -5.62 0.06l0.18 -2a0.5 0.5 0 0 0 -0.42 -0.54c-3.56 -0.66 -5.66 -3.88 -2.9 -5.96zm-52.68 76a12.22 12.22 0 0 1 -3.32 12 27.14 27.14 0 0 0 -2.8 -5.06 10.98 10.98 0 0 0 4.74 -7.62zm-18.96 -17.7c0.1 -4 0.62 -11.48 3.86 -13.72s7.4 1.12 10.38 0.8 6.38 -1.18 8.44 0.72c1.5 1.4 2.24 4.2 2.26 8.48a23.4 23.4 0 0 1 -4.46 14 9.22 9.22 0 0 1 -5.62 3.54c-0.68 0 -0.4 1.14 0.22 1.02l1.2 -0.32c0.14 4.4 -0.98 6.6 -4.8 9.54v0.1a5.38 5.38 0 0 0 -2 -0.44c-0.48 0 -1.68 0 -2 0.54A13.36 13.36 0 0 1 106 144.42c0 -0.64 0.28 -2.2 0.48 -3.26a5.74 5.74 0 0 0 0.98 0.52 0.54 0.54 0 0 0 0.44 -1 6 6 0 0 1 -1.68 -1.16c-3.16 -2.8 -4.12 -7.52 -4.12 -11.72zm1.32 18 1.34 -0.44a14.68 14.68 0 0 0 3.56 7.42 22 22 0 0 0 -2.68 4.72 11.3 11.3 0 0 1 -2.22 -11.78zM48.5 64.38c1.02 -0.14 1.64 1.1 1.72 2a6.52 6.52 0 0 0 -1.52 -0.24 5.78 5.78 0 0 0 -0.84 -1.44 1.12 1.12 0 0 1 0.64 -0.32zm-2.76 0.16c0.74 0 1.4 0.52 2 1.76a1.3 1.3 0 0 0 -0.84 1.6 7.42 7.42 0 0 0 -2.22 -2.4 1.08 1.08 0 0 1 1.06 -0.96zm-0.34 2.72c0.66 0.88 0.8 1.78 0.56 2s-0.88 0 -2.22 -1.74a0.42 0.42 0 0 0 -0.7 0.42 5.3 5.3 0 0 0 -1.24 -0.28c-0.1 -1.66 2.02 -2.44 3.6 -0.4zm-5.22 2.2c0.58 -2 3.54 -0.58 4.94 0.98 0.16 0.16 0.64 0.7 0.52 0.92s-2.2 -0.66 -2.62 -0.88a0.44 0.44 0 0 0 -0.54 0.14c-0.14 0.26 0 0.52 0.58 0.82s2.66 1.5 2.26 2.96c-0.14 0.54 0.54 0.76 0.68 0.3a2 2 0 0 0 -0.44 -2.38c0.86 -0.14 1.4 -0.98 0.46 -2.18a1.1 1.1 0 0 0 0.9 -1.2 1 1 0 0 0 0.92 0.16 7.54 7.54 0 0 0 1.5 1 3.52 3.52 0 0 0 -2 2.64 0.42 0.42 0 0 0 0.78 0.26 4 4 0 0 1 2.7 -2.38 0.42 0.42 0 0 0 0 -0.76c-2 -1.06 -4.28 -2.66 -2 -2.7 1.52 0 4 1.04 4.3 2.8a3.36 3.36 0 0 1 -2 3.56 7.5 7.5 0 0 1 -2.2 0.84 0.5 0.5 0 0 0 -0.36 0.52l0.14 1.46a43.7 43.7 0 0 0 -5.6 -0.12c0 -1.32 0.18 -1.46 -0.16 -1.72 -1.7 -1.26 -3.3 -3.28 -2.76 -5.04zm34.32 93.62a0.52 0.52 0 0 0 -0.48 -0.66 0.5 0.5 0 0 0 -0.48 0.34 82 82 0 0 0 -3.02 11.52C51.24 166.6 43.68 147.06 40.74 132c-3 -15.64 -2.86 -33.44 0.48 -54.42a39.32 39.32 0 0 1 8.26 0C58 107.14 71.2 143.1 102 145.72c-2.82 7.36 3.34 13.32 3.4 13.38a0.62 0.62 0 0 0 0.6 0.16c0.72 -0.16 0.38 -1.18 2.38 -4.4h1a7.74 7.74 0 0 0 0.54 2A205.62 205.62 0 0 0 102.76 198a0.34 0.34 0 0 0 0 0.14 13.76 13.76 0 0 0 6.36 6.68 0.3 0.3 0 0 0 0.34 0A31.6 31.6 0 0 0 115.28 198c0.14 -0.26 -1.22 -33.46 -2.32 -40.8a6.22 6.22 0 0 0 1.04 -2.22h0.98c2 3.74 1.74 4.28 2.4 4.42a0.6 0.6 0 0 0 0.58 -0.18 14 14 0 0 0 4.46 -13.46 41.14 41.14 0 0 0 28.98 -14.7c8.84 -10.12 16.6 -26.54 24.22 -51.64a28.18 28.18 0 0 1 8 -0.14c4.14 19.72 3.82 42.82 -2.66 62.16 -6.58 6.42 -15.44 6 -21.02 14.3a16.78 16.78 0 0 0 1.1 19.4 67.28 67.28 0 0 0 -6.22 9.3 88.34 88.34 0 0 0 -7.46 -23.2 0.54 0.54 0 0 0 -0.98 0.44 110.72 110.72 0 0 1 7.2 25.12c-4.32 8.64 -7.12 20.38 -0.38 27.08 -31.14 0 -80.34 0.24 -80.34 0.24 -2.46 -18.12 -3.92 -33.4 1.64 -51.04zM46 334.2h-4.82c-0.28 -26.8 -1.04 -66.58 -0.32 -108H52c-1.42 32.82 -3.88 73.08 -6 108zm3.36 -33.04c1.14 -17.56 1.68 -27.74 1.68 -27.74 3.24 10 8.12 18.46 13.26 27.74zm3.44 -64.62c0.12 -3.4 0.24 -6.82 0.34 -10.24h14a31.44 31.44 0 0 0 -14.32 10.24zM85.58 324c-2.68 3.82 -16.8 8 -19.88 7.1a4 4 0 0 1 -2 -2.74 3.18 3.18 0 0 0 1.04 0.54c3.46 1.08 12 -1.24 19.24 -5.2a0.52 0.52 0 0 0 -0.5 -0.9c-8.88 4.92 -17.68 6 -19.06 4.36s7 -7.34 9.14 -8.84c3.38 2.9 7.42 2.7 11.16 -0.56 0.26 1.88 0.52 4.04 0.86 6.24zm-1.02 -7.52c-4 3.2 -6.78 3.42 -10.32 0.88 0 0 -1.72 -3.7 -2.34 -4.98a39.16 39.16 0 0 0 11.34 -4.2c0.5 2.74 0.92 5.4 1.32 8.24zm45.72 -15.32h-17.6l3.84 -36.14a107.82 107.82 0 0 0 11.64 -1.58 0.3 0.3 0 0 0 0.24 -0.28c0.12 -1.26 0.24 -2 0.36 -2.92 0.66 -4.96 1.14 -4.96 0.88 -5.26s-0.42 0 -0.7 0c-5 1.3 -19.36 4.54 -43.52 0.54a0.32 0.32 0 0 0 -0.28 0c-0.3 0.36 0.5 0.56 1.58 7.48a0.3 0.3 0 0 0 0.24 0.24 119.14 119.14 0 0 0 16 1.86l2.32 36H86a211.62 211.62 0 0 0 0.22 -29.7 55.28 55.28 0 0 0 -5.86 -22c-1.16 -2.34 1.16 -2.2 1.82 -0.86a37.22 37.22 0 0 1 2.16 4.76 0.34 0.34 0 0 0 0.26 0.2c30.76 3.52 44.62 -1 45.68 -1.1 0.56 0 0.12 -1.16 2.28 -6 0.82 -1.86 3.14 -1.64 2.5 0 -6.04 15.8 -7.34 30.6 -4.78 54.7zm11.26 29.2a3.2 3.2 0 0 1 -2.32 1.5 0.52 0.52 0 0 0 0.16 1.02 4.28 4.28 0 0 0 3.68 -3.4 5.42 5.42 0 0 1 -1.54 4.2 6.4 6.4 0 0 1 -4.96 1.36c-4.2 -0.46 -7.06 -4.38 -5.6 -9.38 -0.24 4.52 1.6 7.3 6 7.58a0.48 0.48 0 0 0 0.52 -0.44 0.5 0.5 0 0 0 -0.42 -0.54 4.8 4.8 0 0 1 -4.68 -3.78 13.86 13.86 0 0 1 0.3 -6 7.78 7.78 0 0 0 8.64 0.24c0.44 1.28 1.56 5.28 0.22 7.58zm-0.36 -8.86a7.64 7.64 0 0 1 -8.28 -0.2 36.66 36.66 0 0 0 -0.28 -8.96 78 78 0 0 0 11.42 1.06c-0.84 2.38 -1.84 5.36 -2.86 8.04zm-62.5 -95.14h68.88a105.84 105.84 0 0 1 -68.88 0zm73.12 74.72c4.38 -10.18 11.12 -22 15.22 -33.14 4.5 11.02 11.48 22.24 18 33.14zm5.76 -74.68h10a17.68 17.68 0 0 0 -3.32 4.54 24 24 0 0 0 -6.68 -4.54zm40.56 94.68c0 -0.36 -2.78 -5.44 -2.94 -5.76a18.46 18.46 0 0 0 10 -2.6s0.32 7.3 0.36 7.56q-4.44 2.94 -7.42 0.8zm10 -15.64c0 -0.64 0 -1.66 0.16 -3h2.56l0.24 3.32zm0.22 -4.38c0.22 -5.02 0.56 -14 0.82 -22.3 0.24 3.76 1.58 22.3 1.58 22.3zm12.72 19.18a0.74 0.74 0 0 0 0 0.36 6 6 0 0 1 -7.6 -0.48c0 -0.44 0 -1.54 -0.48 -7.4a20.44 20.44 0 0 0 10.38 1.64c-0.88 2.1 -1.62 4.02 -2.3 5.88zm2.74 -7.04a25.56 25.56 0 0 1 -10.82 -1.74c-1.22 -17.86 -2.88 -41.54 -2.96 -44.18 -0.26 -10 0.28 -20.42 6 -29.66 0.42 -0.68 -0.62 -1.24 -1 -0.68a33.64 33.64 0 0 0 -4.96 11.5 27.02 27.02 0 0 1 -8.88 0.4 33.66 33.66 0 0 0 -6.4 -11.48c-0.44 -0.52 -1.36 0.18 -0.88 0.78 9.16 11.52 9.56 33.34 11.36 73.32a29 29 0 0 1 -10.6 2.78c-8.36 -15.26 -20 -32.56 -26.84 -48.16 3.46 -9.9 6.92 -24 -2.4 -34a30.22 30.22 0 0 1 4.38 -5.6h6.82a50.38 50.38 0 0 0 26 7.38 0.32 0.32 0 0 0 0.28 -0.18l2.86 -6.1c6.46 6 6.3 6 6.5 6a63.14 63.14 0 0 0 28.26 -5.64c18 11.42 -0.56 49.42 -9.4 68.8 -2.64 5.74 -5.12 11.26 -7.32 16.46zm6.94 -12c10 -21.58 31.1 -62.76 10.4 -74.42l-0.16 -0.36h32.2c-14.88 6.24 -19.48 22 -12.62 43.54a225.78 225.78 0 0 0 13.56 31.24zm58.64 21.58a32.96 32.96 0 0 0 -2.6 -5.58 58.44 58.44 0 0 0 12.74 -4.96 74.48 74.48 0 0 0 0.38 9.68c-2.02 1.26 -6.76 3.82 -10.52 0.76zm11.14 -60.5a58.74 58.74 0 0 0 10.38 1.48l1.58 37.5h-11.1c0.62 -13.42 1.28 -26.02 -0.86 -39.08zm0.4 51.62c0 -4 0.2 -7.38 0.4 -11.46h11.22l0.36 8.78a25.48 25.48 0 0 0 -11.98 2.58zm16.78 -3c0.24 -1.46 0.72 -4.54 1.32 -8.46h6.34c0 2.46 0.52 9.42 0.52 9.42a34 34 0 0 0 -8.18 -1.06zm7.62 -9.62h-6.12c1.66 -10.84 4.4 -29.66 4.64 -37.56 1.58 -0.12 3.18 -0.32 4.76 -0.58a144.28 144.28 0 0 0 -3.28 38.04zm11.3 19.38c-4.16 2.8 -8.72 -0.68 -10.2 -2 0.24 -1.08 0.92 -4 1.2 -5.36a49.8 49.8 0 0 0 11.64 2.86 28.38 28.38 0 0 0 -2.64 4.4zm4.62 -5.38a63.44 63.44 0 0 1 -14.1 -3.62 174.82 174.82 0 0 1 7.72 -66.14c0.34 -1.1 -0.8 -1.36 -1.14 -0.4s-1.42 4.18 -2.8 8.94c-8 1.48 -18.18 1.26 -32.32 -0.7a76.78 76.78 0 0 0 -2.68 -8c-0.18 -0.46 -0.52 -0.58 -0.84 -0.42s-0.46 0.36 -0.24 0.98c7.84 22 5.24 41.54 4.78 64.88a112.2 112.2 0 0 1 -16 6c-6.56 -13.5 -16 -30.28 -21.18 -46.5 -9.62 -29.9 4.5 -40.32 13.82 -43.86h9.18a46 46 0 0 0 20.4 12.2c0.22 0 -0.32 0.4 7.72 -5.74 7.4 8 6.78 7.44 7 7.46s16.16 -0.8 28.8 -6.78c0.66 20.4 2 42.84 3.06 60.16zm-44.86 -88.96h52.76v2.66c-6.1 0.48 -22.68 4.78 -52.76 -2.76zm53.82 74.88c0.5 -0.98 1.06 -2 2.36 -4.8l0.3 4.8zm10.94 32.98h-4.84c-1.82 -31.66 -5.44 -102.7 -5.7 -108h10.36c1.14 64.52 0.26 82.14 0.18 108zM33.84 224.84a40.36 40.36 0 0 1 0 -9.32h121.2c8.3 6 22.18 4.22 32.32 -0.16h38.48a49.26 49.26 0 0 0 22.16 2.82 19.68 19.68 0 0 0 8.72 -2.66h111.52a49.34 49.34 0 0 1 0 9.32zm328.98 7.4c6.24 10.38 3.46 24.72 0.36 35.38 0 -10.98 -0.06 -22.82 -0.36 -35.38z" stroke-width="1"/></g></svg>