<svg xmlns="http://www.w3.org/2000/svg" id="Wireframe-1--Streamline-Milano.svg" viewBox="9.95 26.77 380.44 347.11"><desc>Wireframe 1 Streamline Illustration: https://streamlinehq.com</desc><g fill="#000000"><path d="M164.18 291.22c-62.62 8 -58.84 7.42 -59.02 7.62a1.02 1.02 0 0 0 -0.34 0.68 0.68 0.68 0 0 0 0.66 0.64c31.52 -4 59.08 -7.48 58.82 -7.48a1.1 1.1 0 0 0 0.64 -0.74c0.08 -0.44 -0.44 -0.7 -0.76 -0.72zm-93.14 -18.6a15.6 15.6 0 0 0 17.76 -5.44 17.16 17.16 0 0 0 -2.18 -21.64c-9.54 -9.12 -19.18 -4.96 -23.88 2.68 -5.04 8.2 -4.36 20.4 8.3 24.4zm16.2 -6a15.1 15.1 0 0 1 -18.84 3.56l8.3 -11.14a94 94 0 0 0 10.54 7.66zm0.48 -0.6c-3.84 -3.52 -10 -8 -10 -8l8.54 -11.26c4.5 3.34 6.86 11.68 1.46 19.34zm-3.12 -20.6 -8.6 11.54c-11.8 -8.66 -12 -8.82 -11.86 -8.66a15.32 15.32 0 0 1 20.46 -2.8zm-20.86 3.86c5.6 5.02 8.32 5.8 11.4 8.88l-8.52 10.96a14.9 14.9 0 0 1 -2.88 -19.76zm11.58 60.96a15.6 15.6 0 0 0 17.76 -5.44 17.2 17.2 0 0 0 -2.18 -21.64c-9.54 -9.14 -19.18 -4.96 -23.88 2.66 -5.02 8.18 -4.36 20.4 8.3 24.42zm16.2 -6a15.12 15.12 0 0 1 -18.84 3.56l8.3 -11.14a99.46 99.46 0 0 0 10.54 7.66zm0.48 -0.6c-3.84 -3.54 -10 -8 -10 -8l8.54 -11.24c4.5 3.32 6.86 11.6 1.46 19.32zm-3.12 -20.6 -8.54 11.46c-11.8 -8.66 -12 -8.84 -11.86 -8.66a15.28 15.28 0 0 1 20.4 -2.72zM68 286.98c5.6 5.02 8.32 5.8 11.4 8.88l-8.52 10.94a14.88 14.88 0 0 1 -2.88 -19.82zM387.16 45.56l-280 -18.78a3.56 3.56 0 0 0 -3.86 3.38l-2.78 41.26 7.48 -0.9 2.34 -34.36a2.42 2.42 0 0 1 2.52 -2.34l268 18a2.58 2.58 0 0 1 2.38 2.54c-9.46 142 -10.84 166.22 -11.52 170.66 -0.18 1.04 -0.76 1.78 -2.34 1.82L316 223.12l-0.4 -2.76c0 -0.3 -0.26 -0.64 -0.88 -0.64l-15.62 2.28 -122.34 -8 0.9 7.7 85.72 5.62c-62.4 9.72 -58.82 8.96 -58.82 9.52 13.48 91.44 12.5 85.7 12.88 86s16.4 -2.36 24 -3.4c4.78 41.2 5.56 48.62 5.84 50 0 0.38 0.14 0.26 0.22 0.3 2 0 110.12 -13.6 110.34 -13.62l-9.84 -86c0 -0.3 -0.26 -0.64 -0.88 -0.64l-24.54 2.98 -6 -41.58 57.8 3.78a3.6 3.6 0 0 0 3.84 -3.28c0 -0.2 12.2 -182.6 12.16 -182.4a3.26 3.26 0 0 0 -3.22 -3.42zm-74.72 176c-36.98 38.16 -32.3 35.06 -45.88 48.66 -0.18 -0.22 -58.92 -32.4 -59.36 -32.66 142.1 -20.98 61.74 -9.06 105.24 -15.96zm-45.84 50.3c1.88 1.04 10.5 6 10.5 6l-18.3 2.4zM205.86 238l59.78 33c-1.46 1.54 -7.44 7.72 -8.9 9.28 -13.06 1.58 -17.56 2 -19.1 2.34 -0.96 0.22 -0.76 0.4 -0.76 0.82 0.22 1.9 1.82 15.14 1.86 15.44s-20.12 21.9 -20.44 22.48c-0.2 0.04 0.14 1.18 -12.44 -83.36zm13.74 83.16c6.5 -6.54 19.48 -19.9 19.48 -19.9l2 16.64c-7.92 1.14 -14.64 2.1 -21.48 3.3zm28.7 47.06s-8.34 -69.12 -10 -83.62c80.14 48.16 52.5 31.54 58.46 35.18 0.42 0.04 -42.48 40.96 -48.46 48.48zm108.48 -13.2 -106.4 12.6c15.16 -14.42 33.28 -32.14 47.52 -47.16 10.7 6.8 54.1 31.96 58.88 34.6zm0 -1.08c-31.6 -19.88 -45.42 -27.08 -57.7 -34.32 3.3 -3.46 38.92 -38.44 47.56 -47.48 3.88 30.34 10.2 82.04 10.18 81.86zm-11.08 -82.52c-25.44 24.28 -46.44 47 -48.18 47.34 -43.46 -25.88 -44.72 -27.38 -58.36 -34.8zm-24.16 1.22L280 277.74c-6.66 -3.6 -6.62 -3.32 -12.52 -6.62 6.46 -7.3 38.74 -40.66 46 -48.84 6 39.72 4.52 27.24 8.1 50.4z" stroke-width="1"/><path d="M170.36 162.92v0.66l4.24 0.22s3 -39.46 3.4 -43.14a0.68 0.68 0 0 0 -0.6 -0.66c-4 -0.34 -7.6 -0.62 -12.8 -0.62l0.3 1.5c2.2 0 0 -0.1 11.6 0.62 -2.26 1.74 -7.46 5.66 -10.26 8.4l0.3 1.52a118.42 118.42 0 0 0 10.14 -9.18L174.4 163.02c-4.76 -6 -4.3 -5.4 -5.32 -6.12l0.34 2.14c2.18 2.28 3.12 3.3 4.2 4.22zm131.14 16.46c-0.54 0.34 -0.34 1.12 0.18 1.5l42.68 2.76a0.68 0.68 0 0 0 0.64 -0.64 1.16 1.16 0 0 0 -0.48 -0.78c-46.76 -3.04 -42.82 -2.9 -43.02 -2.84zm-0.96 8.24a1.22 1.22 0 0 0 0.5 0.78l42.68 2.78a0.68 0.68 0 0 0 0.64 -0.64 1.2 1.2 0 0 0 -0.48 -0.78l-42.78 -2.7zm-56.34 -11.44a1.22 1.22 0 0 0 0.5 0.78l42.68 2.78a0.68 0.68 0 0 0 0.64 -0.64 1.28 1.28 0 0 0 -0.48 -0.78l-42.7 -2.78a0.68 0.68 0 0 0 -0.64 0.64zm-0.42 7.68a1.28 1.28 0 0 0 0.48 0.8l42.7 2.76a0.68 0.68 0 0 0 0.64 -0.64 1.22 1.22 0 0 0 -0.5 -0.78l-42.68 -2.78a0.68 0.68 0 0 0 -0.64 0.64zM187.24 171.6s-0.28 0 -0.64 0.62a1.38 1.38 0 0 0 0.48 0.8l42.7 2.78a0.68 0.68 0 0 0 0.64 -0.64 1.32 1.32 0 0 0 -0.5 -0.8l-42.68 -2.78zm-1.08 8.4a1.12 1.12 0 0 0 0.48 0.78l42.68 2.78a0.68 0.68 0 0 0 0.64 -0.64 1.12 1.12 0 0 0 -0.48 -0.78L186.8 179.38a0.68 0.68 0 0 0 -0.64 0.62zm-12.88 -9.3 -2.28 -0.26 0.3 1.52 1.88 0.22c0.66 -0.08 0.82 -0.94 0.1 -1.48zM172 178.52l0.3 1.5h0.38c0.94 0 0.74 -1.5 0 -1.5zm64.28 -83s3.22 -39.66 3.66 -43.34a0.66 0.66 0 0 0 -0.62 -0.64L196.6 48.98c-0.2 0 -0.6 0 -0.62 0.4S193 94.88 193.2 92c0.02 1.14 -0.74 0.9 43.08 3.52zm-0.62 -0.66L194.68 91.6c4 -2.94 16.42 -14.26 21.42 -18.74 1.7 1.98 19.56 22 19.56 22zm0 -0.86c-6.12 -8.26 -12.64 -15.38 -18.48 -22 6.16 -5.54 16 -12.76 20.74 -17.7 -0.92 13.24 -2.2 39.9 -2.18 39.7zM238 53c-4.42 3 -12.76 10.4 -21.86 18.56C206.96 61.44 207.4 60 198 50c13.76 1.06 40.28 3.02 40 3zM196.56 50c2.48 3.48 19.2 22.5 19.02 22.3 -5.42 4.3 -20.14 17.56 -21.78 19 0.48 -9.18 2.2 -32.76 2.76 -41.3zm-57.58 -4.46c-0.3 3.62 -1.3 20.46 -1.3 20.46h0.86c1.22 -18.24 1.2 -15.46 1.48 -20l19.2 22.52c-0.76 0.72 -0.68 0.66 -0.9 0.66a6 6 0 0 1 0.12 1.28l1.28 -1.26C162.12 72 170 82 178.76 90.86c-1.74 0 -3.04 -0.22 -17.82 -1.36v1.1c17.64 1.04 13.54 0.74 19.2 1.32 0.12 -2.64 1.48 -32.62 2.76 -43.52a1.22 1.22 0 0 0 -0.78 -0.5L139.4 45.18a0.4 0.4 0 0 0 -0.42 0.36zm40 44.68c-5.48 -7.34 -15.42 -18.62 -18 -21.34 14.92 -12.94 16.54 -13.58 20.64 -18 -2.04 30.56 -2.54 38 -2.62 39.34zm1.62 -40.86C153.5 72.5 161.66 65.62 160 66.8c-3.54 -4 -15.84 -17.08 -19 -20.7 26.72 2.26 23.28 2.22 39.62 3.26zm125.84 57.46c-0.56 0.32 -0.38 1.1 0.14 1.48l42.7 2.78a0.68 0.68 0 0 0 0.64 -0.64 1.22 1.22 0 0 0 -0.5 -0.78c-45.42 -2.96 -42.78 -2.88 -42.98 -2.84zm-0.98 8.32a1.2 1.2 0 0 0 0.54 0.86l42.7 2.78a0.68 0.68 0 0 0 0.64 -0.64 1.32 1.32 0 0 0 -0.5 -0.8l-42.68 -2.76a0.68 0.68 0 0 0 -0.7 0.56zm-56.02 -12.24c-0.56 0.36 -0.34 1.12 0.16 1.5l42.7 2.78a0.7 0.7 0 0 0 0.64 -0.64 1.32 1.32 0 0 0 -0.5 -0.8c-45.42 -2.94 -42.8 -2.88 -43 -2.84zm-0.76 8.4a1.28 1.28 0 0 0 0.5 0.78l42.68 2.78a0.68 0.68 0 0 0 0.64 -0.64 1.38 1.38 0 0 0 -0.48 -0.8l-42.7 -2.76a0.68 0.68 0 0 0 -0.64 0.64zm-56.86 -12.24c-0.56 0.34 -0.36 1.12 0.16 1.5l42.68 2.78a0.68 0.68 0 0 0 0.64 -0.64 1.28 1.28 0 0 0 -0.48 -0.8c-45.5 -2.96 -42.82 -2.88 -43 -2.84zm-0.28 9.4 42.7 2.76a0.68 0.68 0 0 0 0.64 -0.64 1.28 1.28 0 0 0 -0.5 -0.78c-45.74 -2.98 -42.88 -2.9 -43.08 -2.78a0.94 0.94 0 0 0 0.24 1.44zM178 99.56a0.68 0.68 0 0 0 0.64 -0.64 1.32 1.32 0 0 0 -0.5 -0.8L162 97.04l0.3 1.5 15.7 1.06zm-0.62 7.68a1.22 1.22 0 0 0 0.78 -0.5 1.16 1.16 0 0 0 -0.48 -0.78l-14.62 -1.28 0.3 1.5zM173.5 189.6l0.32 1.28 168.94 11.12 -0.6 9.18L174.6 200v0.8c0.46 0 -5.86 -0.5 168.16 10.84l0.66 -10c0 -0.16 -0.16 -0.26 -0.36 -0.28 -2.48 -0.54 -23.06 -1.8 -169.56 -11.76zm-19.34 33.24 0.66 0.36c0.36 0.24 1.14 -0.18 0.58 -0.38l-0.62 -0.28c0 -1.34 -7.72 -65.36 -7.68 -65.16a1.28 1.28 0 0 0 -0.82 -0.5c-0.2 0 -100 12.92 -99.72 12.9a0.42 0.42 0 0 0 -0.42 0.42c0 0.22 8.36 65.24 8.32 65.02 0 0.78 -3.48 1.92 99.7 -12.38zm0 -0.94c-13.24 -5.84 5.24 1.6 -52.6 -25.28 55.9 -47 22.34 -18.92 43.9 -37.82 0.06 -0.3 -0.68 -5.36 8.68 63.2zM144 158.82c-0.28 0.2 -42 35 -43.8 37.18 -17.48 -7.68 -24.9 -13.4 -52.8 -25.34 30.48 -3.8 9.58 -1.24 96.6 -11.84zM47.3 172c22.96 12 35.6 17.04 51.78 25.12 -13.2 10.84 -32 26.84 -43.52 37.3 -3.36 -24.2 -8.3 -62.58 -8.26 -62.42zm52.86 25.36c26.9 13.2 40.5 19.36 52.98 24.88 0 0 -89.28 11.28 -97.02 12.3C88.74 208 100.36 197.2 100.16 197.36zm44.14 -45.88 0.7 0.38c0.62 0.34 1.2 -0.16 0.62 -0.46l-0.38 -0.18 -8 -65.34a1.36 1.36 0 0 0 -0.82 -0.5c-106.82 13.82 -100.14 12.74 -100.14 13.32s8.22 65.44 8.5 65.62c5.22 0 99.22 -12.8 99.52 -12.84zm0 -0.9S93.68 126.28 91.62 125.32c7.38 -6.22 35.88 -29.84 44.12 -38 5.16 39.36 3.22 24.82 8.48 63.26zm-9.8 -63.3c-1.2 1.08 -43.78 37.14 -43.82 37.2 -18.48 -8.12 -24 -13.06 -52.6 -25.24 30.08 -3.64 9.48 -1.08 96.34 -11.96zm-96.98 13.44c19.78 10.36 39.48 18.94 51.76 25.1C74 138.24 60.52 149.46 45.62 163.06c-3.12 -23.92 -8.12 -62.54 -8.1 -62.34zm8.8 62.54c24.92 -19.44 44.58 -37.76 44 -37.24 15.64 7.66 30.96 15.2 52.88 24.88zM154 317.16a10.2 10.2 0 0 0 -0.86 -2.4 5.56 5.56 0 0 0 -6 -2.68c-6 0 -60.68 7.5 -61.72 7.7a7.1 7.1 0 0 0 -4 3.76c-0.44 2 -0.3 3 0.64 8.72a6 6 0 0 0 5.74 6c1.52 0 64 -8 61.26 -7.72a5.58 5.58 0 0 0 5.56 -5.26 28 28 0 0 0 -0.62 -8.12zm-4.12 12.3 -59.2 7.58a7.16 7.16 0 0 1 -5.1 -0.54c-2.22 -1.4 -2.96 -9.04 -3 -10.68 0 -3.56 2.5 -4.7 6 -4.8 3.04 -0.3 1.48 -0.36 13.08 -1.6 12.22 -1.34 45.06 -6 46.58 -6.1a4.66 4.66 0 0 1 4.42 3.02c0.36 1.24 0.78 8.34 0.78 8.54a4.2 4.2 0 0 1 -3.6 4.58zM104 290.6a0.64 0.64 0 0 0 0 0.66 0.62 0.62 0 0 0 0.12 0.26v0.12a0.74 0.74 0 0 0 0.46 0.2c62.64 -8 58.8 -7.42 58.98 -7.62s0.58 -1.32 -0.32 -1.32c-0.22 0 -59.04 7.36 -59.24 7.7zm-1.08 -9.6a2.18 2.18 0 0 0 -0.24 0.72 0.68 0.68 0 0 0 0.66 0.64c62.64 -8 58.8 -7.42 59 -7.62a1.1 1.1 0 0 0 0.34 -0.7 0.68 0.68 0 0 0 -0.66 -0.64c-0.22 -0.02 -58.74 7.34 -59.1 7.6zM100 261.76v0.2a0.22 0.22 0 0 1 0 0.16 0.7 0.7 0 0 0 0.52 1.12c62.64 -8 58.8 -7.42 58.98 -7.62a1.08 1.08 0 0 0 0.36 -0.68 0.7 0.7 0 0 0 -0.68 -0.64c-0.88 -0.02 -58.62 7.46 -59.18 7.46zm-1.06 -8.32a2.36 2.36 0 0 0 -0.24 0.72 0.68 0.68 0 0 0 0.66 0.64c0.7 0 59.06 -7.5 58.78 -7.46 0.38 0 0.64 -0.56 0.64 -0.86l-0.54 -0.56h-0.76c0.2 0.2 -59.48 7.52 -58.54 7.52zm59.44 -6.76zM97.8 244v0.42a0.76 0.76 0 0 0 0.52 1.22l58.68 -7.48c0.36 0 0.68 -0.6 0.64 -0.98v-0.12a0.76 0.76 0 0 0 -0.8 -0.48c-63.24 8.26 -58.5 7.56 -59.04 7.42z" stroke-width="1"/><path d="M157.56 72.42A7.58 7.58 0 0 0 150 65.84c-2 0 -138.1 17.08 -133.42 16.42A7.52 7.52 0 0 0 10 90.62L44.64 367.2a7.48 7.48 0 0 0 7.36 6.68c1.8 0 134.92 -16.66 133.48 -16.44a7.84 7.84 0 0 0 6.52 -8.54zM60.22 351.18a7.1 7.1 0 0 1 -7.86 -6L21.38 96.76a6.8 6.8 0 0 1 6 -7.66L141.8 74.8a6.96 6.96 0 0 1 7.5 4.54c0 0.2 31.32 250.1 31.3 250a7.12 7.12 0 0 1 -6 7.64c0.2 -0.1 -116.04 14.4 -114.38 14.2zM293.84 99.22s3.22 -39.66 3.66 -43.36a0.66 0.66 0 0 0 -0.62 -0.64l-42.72 -2.56c-0.2 0 -0.6 0 -0.6 0.42s-3 45.5 -2.8 42.7c0.02 1.04 -0.76 0.82 43.08 3.44zm-0.62 -0.66 -40.98 -3.28c4 -2.92 16.42 -14.24 21.42 -18.74 1.7 1.98 19.56 22.02 19.56 22.02zm0 -0.86c-6.12 -8.26 -12.62 -15.4 -18.48 -22 6.16 -5.56 16 -12.78 20.74 -17.72 -0.92 13.26 -2.2 40.02 -2.18 39.72zm2.34 -41c-4.42 3 -12.74 10.4 -21.86 18.54 -9.26 -10 -8.82 -11.54 -18.26 -21.56 13.9 1.08 40.4 3.04 40.2 3.02zm-41.52 -2.96c2.48 3.46 19.2 22.5 19.02 22.3 -5.42 4.28 -20.14 17.54 -21.78 19 0.56 -9.22 2.32 -32.8 2.84 -41.3zm96.82 49.4s3.14 -39.66 3.64 -43.34a0.66 0.66 0 0 0 -0.62 -0.64l-42.7 -2.56c-0.2 0 -0.6 0 -0.62 0.4s-2.98 45.5 -2.8 42.7c0.02 1.06 -0.72 0.82 43.1 3.44zm-0.62 -0.66 -40.98 -3.26c4 -2.94 16.4 -14.26 21.4 -18.74 1.7 1.96 19.58 22 19.58 22zm0 -0.86c-6.1 -8.26 -12.62 -15.38 -18.46 -22 6.14 -5.54 16 -12.76 20.72 -17.7 -0.94 13.24 -2.2 39.9 -2.2 39.7zm2.34 -41c-4.42 3 -12.74 10.4 -21.84 18.56 -9.28 -10.12 -8.82 -11.56 -18.28 -21.56 13.88 1.06 40.38 3.02 40.18 3zm-41.5 -2.96c2.46 3.46 19.18 22.5 19.02 22.3 -5.44 4.3 -20.14 17.56 -21.8 19 0.56 -9.22 2.3 -32.8 2.84 -41.3zM346 175.64s3.22 -39.66 3.64 -43.34a0.66 0.66 0 0 0 -0.62 -0.64l-42.7 -2.56c-0.2 0 -0.6 0 -0.62 0.4s-2.98 45.5 -2.8 42.7c0.08 1.06 -0.68 0.82 43.1 3.44zm-0.62 -0.66 -40.98 -3.26c4 -2.94 16.4 -14.24 21.4 -18.74 1.76 1.98 19.64 22 19.64 22zm0 -0.86c-6.12 -8.26 -12.62 -15.38 -18.46 -22 6.14 -5.54 16 -12.76 20.72 -17.7 -0.88 13.24 -2.16 39.9 -2.14 39.7zm2.34 -41c-4.42 3.02 -12.74 10.4 -21.86 18.56 -9.26 -10.12 -8.8 -11.56 -18.26 -21.56 13.94 1.06 40.4 3.02 40.24 3zm-41.5 -2.96c2.46 3.48 19.18 22.5 19 22.3 -5.22 4.3 -20.02 17.54 -21.66 19 0.44 -9.22 2.24 -32.8 2.78 -41.3zM288.98 172s3.22 -39.64 3.66 -43.34A0.66 0.66 0 0 0 292 128l-42.72 -2.56c-0.2 0 -0.6 0 -0.62 0.4s-2.96 45.44 -2.66 42.64c0 1.04 -0.84 0.8 42.98 3.52zm-0.62 -0.66L247.38 168c4 -2.94 16.42 -14.24 21.42 -18.74 1.7 1.96 19.56 21.98 19.56 21.98zm0 -0.84c-6.1 -8.26 -12.62 -15.4 -18.46 -22 6.14 -5.56 16 -12.78 20.72 -17.72 -0.92 13.22 -2.2 39.82 -2.2 39.62zm2.36 -41c-4.42 3 -12.76 10.4 -21.86 18.54 -9.26 -10 -8.82 -11.54 -18.28 -21.56 13.88 0.96 40.4 2.92 40.2 2.92zm-41.52 -2.98c2.46 3.48 19.2 22.52 19.02 22.3 -5.42 4.3 -20.14 17.56 -21.8 19 0.56 -9.3 2.32 -32.9 2.84 -41.4zM231.54 168s3.22 -39.66 3.66 -43.34a0.66 0.66 0 0 0 -0.62 -0.64l-42.72 -2.6c-0.2 0 -0.6 0 -0.6 0.4s-3 45.5 -2.8 42.7c0.02 1.06 -0.74 0.82 43.08 3.48zm-0.62 -0.66L190 164c4 -2.94 16.42 -14.26 21.42 -18.74 1.64 2 19.5 22.04 19.5 22.04zm0 -0.86c-6.12 -8.26 -12.62 -15.38 -18.48 -22 6.16 -5.54 16 -12.76 20.74 -17.7 -0.92 13.22 -2.2 39.86 -2.18 39.66zm2.34 -41c-4.42 3 -12.74 10.4 -21.86 18.56 -9.26 -10.12 -8.82 -11.56 -18.26 -21.56 13.9 1.02 40.4 2.98 40.2 2.96zm-41.44 -3c2.48 3.46 19.2 22.5 19.02 22.3 -5.42 4.3 -20.14 17.56 -21.78 19 0.48 -9.22 2.24 -32.8 2.76 -41.3z" stroke-width="1"/></g></svg>