<svg xmlns="http://www.w3.org/2000/svg" id="Bring-Solutions-To-Problem-2--Streamline-Milano.svg" viewBox="21.88 10 356.28 379.98"><desc>Bring Solutions To Problem 2 Streamline Illustration: https://streamlinehq.com</desc><g fill="#000000"><path d="M144.26 188.3c-1.36 0 -1.08 -1.86 -0.82 -2.74a16.88 16.88 0 0 1 1.26 -2.82c4.68 -8 -1.56 -11.22 -4 -8.7a6 6 0 0 0 -0.7 5.64c0 0.48 0.82 0.28 0.72 -0.2a7.2 7.2 0 0 1 -0.16 -3.68 2.42 2.42 0 0 1 4.46 -0.56 4.32 4.32 0 0 1 0.56 3.3c-0.56 3.08 -3.74 6.66 -3.04 9.12a1.86 1.86 0 0 0 1.74 1.44 0.4 0.4 0 0 0 -0.02 -0.8zm26.12 -17.7c1.48 -2.14 4 -1.2 4.52 1.12 1.02 4.32 -6.2 7.56 -6 10.96a1.8 1.8 0 0 0 1.26 1.74c0.48 0.16 0.66 -0.58 0.2 -0.74 -1.14 -0.42 -0.58 -1.88 -0.14 -2.6 1.4 -2.28 4.16 -4 5.26 -6.66a4.38 4.38 0 0 0 -0.6 -4.42c-3.32 -3.48 -6.3 0.92 -6.18 4.28 1.18 1.16 0.72 -2.82 1.68 -3.68zm-10.9 49.62c-1.36 0 -1.1 -1.88 -0.84 -2.74 0.8 -2.66 2.94 -5.04 2.98 -8 0 -3.78 -3.8 -5.54 -5.76 -3.5a6 6 0 0 0 -0.7 5.66c0 0.48 0.82 0.26 0.72 -0.2a7.5 7.5 0 0 1 -0.18 -3.7c1.08 -3.48 5.84 -1.76 5.04 2.74 -0.54 3.1 -3.7 6.64 -3.02 9.14a1.88 1.88 0 0 0 1.76 1.42 0.4 0.4 0 0 0 0 -0.82zm12.28 7.52c-2 0.88 -2.38 3.14 -2.64 5.04 0 0.48 0.64 0.68 0.72 0.2a8.32 8.32 0 0 1 0.92 -3.34 2.48 2.48 0 0 1 2.8 -1.3 3.04 3.04 0 0 1 1.82 2.22 4.34 4.34 0 0 1 -0.7 3.2c-1.5 2.7 -5.22 4.22 -5.88 7.62a1.86 1.86 0 0 0 1.22 1.8c1.16 -0.36 -1.38 -2 0.14 -3.28 1.44 -2.22 4.34 -3.78 5.58 -6.46 1.74 -3.8 -1.42 -6.86 -3.98 -5.7zm-18.52 23.64c-1.28 0.38 -1.68 -1.24 -1.74 -2.18 -0.18 -2.82 1.04 -5.88 0 -8.72 -1.28 -3.56 -5.46 -3.8 -6.6 -1.24a6 6 0 0 0 1.26 5.5c0.26 0.42 0.9 0 0.64 -0.36a8 8 0 0 1 -1.42 -3.26c-0.52 -3.3 4.46 -4.18 5.56 0.24 0.84 3.1 -1.14 6.7 0.32 10a1.84 1.84 0 0 0 2.16 0.86c0.58 -0.22 0.3 -0.98 -0.18 -0.84z" stroke-width="1"/><path d="M377.88 314.4c-1.78 -20.56 -4.42 -27.36 -22 -109.24a32.52 32.52 0 0 0 12.34 -10.76 40 40 0 0 0 5.04 -25.38c-2 -18.24 -14.7 -36.32 -28.54 -44.46a6 6 0 0 0 -1.76 -5.28 80.78 80.78 0 0 0 -9.34 -10.22 20.5 20.5 0 0 0 4.78 -7.66 7.42 7.42 0 0 0 2.3 -8 17.64 17.64 0 0 0 -2.94 -16.3 16.68 16.68 0 0 0 -16.14 -5.48c-7.04 -5.1 -15.82 -4.44 -20.54 -0.92 -6.14 4.58 -8.12 15.5 -2 23.34 0 2.48 0.16 4.94 0.4 7.38a25.26 25.26 0 0 0 1.28 7.12c1.62 3.86 4.46 5.54 8.36 6.8 0.42 0.14 1.86 0.38 2 0.46 0.6 0.22 0.26 1.82 0 2.5 -4.9 0.72 -8.9 4.74 -12.24 8.4a11.4 11.4 0 0 0 -1.32 1.62 35.16 35.16 0 0 0 -16.92 17.46c-4.14 8.82 -5.22 18.72 -6.36 28.28a9.16 9.16 0 0 1 -0.9 4 56.98 56.98 0 0 1 -6 5.28 14.92 14.92 0 0 1 -4.34 -10.78c-0.32 -8.94 6.78 -14.82 8.22 -16a0.18 0.18 0 0 0 0 -0.3c-1.52 -1.28 -8.84 -10.12 -14 -12.34h0.36c2.42 -0.4 2.78 -0.54 2.82 -0.8s-0.16 -25.84 -0.34 -26.14c-5.68 -5.08 -9.9 13.84 -17.58 -3.44 -2.4 -7.22 0.54 -18 8 -19.78a4.22 4.22 0 0 1 3.28 0.92c5.2 4.68 7.38 3.02 6.88 -3.22 0 -1.42 0.48 -20.86 0.34 -25.68 0 -0.3 0 -0.46 -20.56 -0.52h-1.04c-1.6 0 -2.36 -0.58 -2 -2.9 3.06 -19.24 -10 -25.78 -26.14 -18a14.26 14.26 0 0 0 -4.7 11.22 13.4 13.4 0 0 0 2.96 9.04 81.2 81.2 0 0 1 -12 0.42c-9.72 0 -23.02 0 -31.68 2a0.2 0.2 0 0 0 -0.16 0.26c3.62 8.84 1.42 16.6 -2.78 19a8.38 8.38 0 0 1 -5.2 0.84c-5.26 -3.82 -5.86 -12.5 -4.68 -19.36a0.54 0.54 0 0 0 -0.5 -0.84c-5.6 0.26 -47.06 2.88 -47.64 2.92 -1.2 0 -4.62 0.46 -4.46 -1.5a19.7 19.7 0 0 0 2.42 -10c-0.46 -6.84 -3.22 -11.52 -8.22 -14 -8.38 -4 -20 -0.14 -23 2 -3.46 2.3 -4.44 6.32 -5.12 9.02a27.72 27.72 0 0 0 1.04 15.78c-23.58 2.14 -40.48 -5.46 -39.08 24 0.38 3.46 -0.38 12.18 2 13.36 4.9 4.3 11.62 -3.5 16.42 -3.8 17.44 6 12.84 33.64 -3.84 29.36a38.4 38.4 0 0 0 -6.82 4.28 0.22 0.22 0 0 0 0 0.32c13.88 7.7 32.88 1.86 33.02 -14.5a26.54 26.54 0 0 0 -7.82 -18.44c-7.02 -6.48 -19.82 -0.72 -22.4 0.84 -0.54 -5.1 -0.98 -10 -1.06 -14.78 0 -6 -0.58 -14.44 2 -18.1C42 72.76 79.36 72 83.22 72a0.2 0.2 0 0 0 0.14 -0.34 19.64 19.64 0 0 1 0.8 -26.94c13.86 -3.04 20.8 10.14 16 21.26 -0.56 1.2 -1.7 2.66 -0.54 4 3.66 2.76 28.2 -1.1 34 -0.9 -0.12 8.82 0.54 28.86 0.72 33.24a12 12 0 0 0 -7.38 -4.74 10.66 10.66 0 0 0 -12.48 7.48 36.28 36.28 0 0 0 -1.18 12.8A21.44 21.44 0 0 0 120 132a8.72 8.72 0 0 0 9.08 1.36 15.56 15.56 0 0 0 6 -3.86C135.38 132 138.42 162 138.74 164.4c-14.56 3.2 -36.74 4.72 -36.88 5.24a14.28 14.28 0 0 0 1.26 8.92C118 196 82 206.86 82.32 186c0 -4.4 2.56 -7.16 2.3 -10.74a12.68 12.68 0 0 0 -1.72 -4.58 0.26 0.26 0 0 0 -0.2 0c-1.64 0.16 -30 2.88 -33.44 3.04 -0.38 -2.7 -2.82 -19.74 -4.36 -30a0.2 0.2 0 0 0 -0.18 -0.16 36.26 36.26 0 0 1 -10.6 -3.86 0.18 0.18 0 0 0 -0.24 0 6 6 0 0 0 -1.42 5.44c0.5 2.42 5.28 35.86 10.36 71.68a13.72 13.72 0 0 0 -14 1.54c-5.82 4.2 -7.74 12.54 -6.64 19.14 2 11.32 12.34 19.14 23.56 15.06 2.2 19.2 4 38.32 5.18 57.78a0.18 0.18 0 0 0 0 0.16 81.64 81.64 0 0 0 10.74 4.16 0.2 0.2 0 0 0 0.22 -0.1 13 13 0 0 1 7.68 -3.28c12.94 8 5.58 28 -11.26 23a0.2 0.2 0 0 0 -0.18 0.34L67.8 342a0.14 0.14 0 0 0 0.12 0c7.7 0.5 14.2 -2.3 16.94 -9.3A18.64 18.64 0 0 0 80 312.38c-2.84 -2.32 -8.96 -5.32 -18.14 0.48 -0.44 -7.28 -0.98 -16.58 -1.46 -24.74 0.9 -0.14 15.36 -2.32 16.12 -2.48a22.48 22.48 0 0 0 7.6 -3.26 5.16 5.16 0 0 0 2.28 -5.12 18.14 18.14 0 0 0 -2.48 -5.14 16.7 16.7 0 0 1 2 -18.54 13.44 13.44 0 0 1 18.4 -1.26c4.32 3.82 3.78 12 1.14 16.14 -1.72 2.76 -2.8 6.86 -0.38 8.86a5.54 5.54 0 0 0 6.3 -0.18c2.66 -1.28 21.8 -7.44 24.16 -8.2 0.36 4.3 1.7 20.34 2 23.58 -12.7 -8.22 -23.6 7.42 -19.22 18.3 4 9.56 14.6 10.54 21.28 3.24 0 8.1 0.54 27.8 0.76 30 -4.84 2.26 -23.88 9.7 -32 11.02a0.36 0.36 0 0 0 -0.3 0.3v0.64c7.38 9.2 2.44 21.74 -8.44 23.5a12 12 0 0 1 -6.84 -21.26 0.2 0.2 0 0 0 -0.22 -0.32l-13.14 6.8c-3.42 1.46 -7.86 3.36 -11.78 3.26 -0.96 -7.04 -1.7 -15.8 -2 -22.96a0.18 0.18 0 0 0 0 -0.14 140.4 140.4 0 0 0 -12.34 -9.34 0.2 0.2 0 0 0 -0.3 0.2c0.76 4.4 1.64 20.8 4 28.12 0.72 3.14 5.68 5.78 9.82 5.26a24.38 24.38 0 0 0 11.02 -2.36 12.14 12.14 0 0 0 0.98 8c8.94 14.24 38.22 6.18 33.52 -12.82a14.76 14.76 0 0 0 -2.8 -6c14.34 -2.6 39.58 -14.4 47.34 -18.36a0.2 0.2 0 0 0 0 -0.24 29.34 29.34 0 0 1 -1.78 -7.48 16 16 0 0 1 5.84 -14c4 3.08 4.62 10.64 3.28 13.1a0.2 0.2 0 0 0 0 0.28c0.96 0.44 11.06 3.4 12 3.4 0.22 0 14.24 -7.46 37.42 -18.18 -4 7.8 1.06 13.62 9.44 14.46 11.02 0.48 25.28 -11.78 18.88 -20.52a14.9 14.9 0 0 0 -4.76 -4.42 167.86 167.86 0 0 0 25.48 -12.5c0.14 -0.1 0 0 0.18 -3.34 0 -3.7 0.2 -7.54 0 -11.32 0 -0.28 -5.88 -4.56 -6 -4.68 -1.82 -1.02 -4.66 -0.4 -8.44 1.84a15.42 15.42 0 0 1 -0.64 -7.68c0.76 -4.72 3.3 -8.24 7.86 -8.98 5.02 3.08 10.56 5.68 12.12 6.86a82.7 82.7 0 0 0 9.06 -3.82s0.12 0 3.74 -9.4a10.14 10.14 0 0 0 2.52 1.48c-3.8 18.66 -7.7 37.04 -9.1 57.32 0 1.42 -0.84 16.5 -0.46 16.62a122 122 0 0 0 15.32 4 200 200 0 0 0 3.28 19.74h-2.32c0.88 4.36 4 18.6 4.54 21.26 -2.62 2.1 -11.1 9.72 -11.38 11.78s0.2 3.82 2.3 3.82 7.38 -0.48 14.64 -1.32a2.7 2.7 0 0 1 5.4 -0.22c3.58 0.44 6.44 -0.58 7.06 -4.18s1.1 -16.34 1.24 -33.6l-1.34 0.28c0.28 -5.08 0.76 -10.14 1.54 -15.18a122.18 122.18 0 0 0 18.68 -1.56c2.18 -0.34 5.1 -0.9 8 -1.56 1.68 4.82 7.08 20.2 8.3 23.46h-1.48c0.88 4.38 4 18.62 4.54 21.28 -2.6 2 -11.1 9.72 -11.38 11.76s0.22 3.82 2.3 3.82 7.4 -0.48 14.64 -1.32a2.8 2.8 0 0 1 2.86 -2.78 2.76 2.76 0 0 1 2.54 2.56c3.6 0.44 6.46 -0.58 7.08 -4.18s1.08 -16.32 1.22 -33.58l-1.62 0.32c-0.1 -4 -0.32 -20.78 -0.1 -25.1a0.28 0.28 0 0 0 -0.16 -0.26 23.5 23.5 0 0 0 8.94 -5.66 46.76 46.76 0 0 0 -0.28 -5.58zM333.4 109.24c2.66 3.2 9.76 11.34 10.28 12.42a4 4 0 0 1 0 3.5c-1.8 4.12 -8 9.68 -11.32 12.56a89.82 89.82 0 0 1 -24.26 14.48 65.16 65.16 0 0 1 -4.54 -4.68 14.6 14.6 0 0 1 -2.34 -5.78 31.16 31.16 0 0 0 31.8 -32.18 2.58 2.58 0 0 0 0.38 -0.32zm-0.82 29.26a110.64 110.64 0 0 1 -4 10.58 13.84 13.84 0 0 0 -5.66 -3.62c3.2 -1.96 9.46 -6.8 9.66 -6.96zM311 115.24a8 8 0 0 1 -1.9 -0.54 12.14 12.14 0 0 1 -7.38 -5.62 18.3 18.3 0 0 1 -1.54 -6.62c-0.88 -7.6 -1.28 -19.06 6 -21.3a12.26 12.26 0 0 0 3.82 4.32c1.3 0.9 1.76 0.82 2.96 1.72 2.4 1.82 2.44 3.62 3.88 5.04s3.36 2.24 8 1.6a6.42 6.42 0 0 1 1.52 1.72c1.14 2 0.62 3.68 1.22 3.9 0.98 0.34 2.36 -4 5.4 -4.48s4.16 2.92 3.24 6a8 8 0 0 1 -5.26 4.84c-0.32 2 -0.66 4 -1 6.12a20.78 20.78 0 0 0 2.62 -2 32.3 32.3 0 0 1 -0.56 5.86c-1.5 2.76 -6 4.94 -9.36 5.56a13.5 13.5 0 0 1 -11.1 -3.04c0.44 -1.06 1.08 -2.88 -0.56 -3.08zm0.36 3.54a13.84 13.84 0 0 0 11.42 3.22 17.38 17.38 0 0 0 6.66 -2.66c-5.04 6.44 -10.54 10.58 -18.7 10a16 16 0 0 1 -3.24 -0.52 14.48 14.48 0 0 1 3.86 -10.04zM297.68 130c0 -0.42 0 -1.72 3.54 -4.96 2.82 -2.56 4.86 -4.84 9.3 -6.16a11.66 11.66 0 0 0 -3.46 10 16.42 16.42 0 0 1 -3.52 -1.48c-0.28 -0.16 -0.54 0.28 -0.26 0.44a18.58 18.58 0 0 0 12.96 1.84c7.26 -1.56 11.9 -8 15.46 -12.1a30.28 30.28 0 0 1 -25.16 23.14 21.14 21.14 0 0 1 -4.24 0 18 18 0 0 1 -4.62 -10.72zm-24.78 49.74c2 -1.72 1.84 -3.16 2.18 -6 1.02 -8.5 2.16 -17.58 5.36 -25.46a36 36 0 0 1 16.86 -19.04 15.26 15.26 0 0 0 0.98 6 17.62 17.62 0 0 0 3.58 5.88h-1.5a16 16 0 0 0 2.86 6.88 62.9 62.9 0 0 0 4.94 4.76 139.22 139.22 0 0 0 14.28 -6.9 15.14 15.14 0 0 1 6 4 0.3 0.3 0 0 0 0.48 0c1.18 -2 4.32 -11.58 4.96 -12.36 3.02 -2.58 9.26 -8.46 10.58 -12.18a63.24 63.24 0 0 1 17.74 17.4c12 17.56 12.84 36.54 6.96 48.7 -8.18 16.9 -33.44 21.2 -52.16 22.78a6 6 0 0 0 -0.32 -3.44c-0.92 -2.54 -3.2 -10.34 -4.8 -12 2.2 -1.2 21.6 -13.1 26 -15.52 0.16 0 0.46 -0.52 0.34 -0.64a86.68 86.68 0 0 0 -6 -16.84c-0.18 -0.3 -0.58 0 -0.46 0.26 0.6 1.34 5.5 13.76 5.76 16.66 -4.5 2.38 -24 14.3 -26 15.84a2.9 2.9 0 0 0 -1.36 -0.66 7.18 7.18 0 0 0 -4.78 1.66c-3.14 2 -3.18 3.12 -2.74 5.56 -0.26 0 -1.78 -0.14 -3.24 -0.32 1.14 -2.66 2.72 -7.46 3.8 -9.62a4.14 4.14 0 0 0 0.64 -2.32 4.2 4.2 0 0 0 -1.44 -2.64s-9.64 -9.64 -14.34 -14.3c1.68 -20.2 1.44 -21.78 2.98 -26.36a0.14 0.14 0 0 0 -0.26 -0.12c-1.74 3.26 -1.9 7.34 -3.26 26l-2 -2a90.52 90.52 0 0 0 -8.22 4.14c-2 1.56 -0.92 4.54 -4.54 9.34a14 14 0 0 1 -4.7 -2.5L268 184c2.1 -1.9 4.34 -3.78 4.9 -4.26zm24.18 31.54c0.36 0 0.4 0 0.46 -0.16a0.34 0.34 0 0 0 0 -0.24 0.72 0.72 0 0 0 -0.12 -0.26v-0.14a0.2 0.2 0 0 0 0 -0.26c-1.3 -0.76 -4.44 -5.72 -0.2 -5.4 0.26 0 1.48 0.22 1.86 0.28a0.2 0.2 0 0 0 0.28 0 24.78 24.78 0 0 0 3.52 0.34 35.04 35.04 0 0 0 2.56 8.58c-1.78 0.14 -2.42 2.24 -5.78 3.52a11.26 11.26 0 0 1 -6.3 0.36c1.3 -2.38 2.74 -4.74 3.72 -6.62zm6 -6.72c-0.28 -1.86 -0.32 -2.76 1.42 -4s4.26 -2.9 6.12 -2.16a3.52 3.52 0 0 1 1.68 2.12c0.8 1.7 3.3 8.58 3.78 10.32 0.86 3.1 0.5 4.52 -2.68 6a9.8 9.8 0 0 1 -2.72 1.04c-4.56 0.72 -7.24 -11.56 -7.52 -13.32zm-17.8 -30.28c0 7.1 -4.38 13.7 -11.32 12.64a17.52 17.52 0 0 0 3.06 -6.32 5.1 5.1 0 0 1 0.88 -2.2 56.18 56.18 0 0 1 7.46 -4.12zm-16.66 28a4.48 4.48 0 0 1 -2 2.8c-2.16 0.98 -26 -16.44 -25.28 -19.02a33.14 33.14 0 0 1 3.64 -4.5c2.36 -1.22 24.1 17.9 23.72 20.7zM242 166.2a21.38 21.38 0 0 0 -3.58 -7.82c0.42 -0.88 2.78 -5.7 4 -7.72a9.6 9.6 0 0 1 5.06 -4.66 27.4 27.4 0 0 1 2.96 -0.84l2.32 -0.36c-2.28 2.44 -9.42 18.54 -10.76 21.4zm-16 18.86a12 12 0 0 1 -13.24 -6.16 21.56 21.56 0 0 1 -2.76 -12.16 7.02 7.02 0 0 1 1.88 -3.88c1.06 -1.16 2.94 -3 3.78 -3.8 -3.22 17.44 19.44 21.5 19.22 25.28a4.92 4.92 0 0 1 0.18 2c-2.26 4.28 -11.86 22.4 -12.34 23.24a3.34 3.34 0 0 0 -0.44 1.82c0.14 1.8 1.86 3.66 16.38 15.38 -0.9 0.4 -1.76 0.88 -2.6 1.34 -4 2.22 -4.88 2.58 -7.68 0.46 -5.38 -4.12 -12.68 -10.16 -13.56 -16.96a10 10 0 0 1 1.66 -6c1.12 -2.16 7.88 -15.12 10.26 -19.64 0.24 -0.4 -0.46 -0.92 -0.74 -0.92zm-8.12 -120.8a0.2 0.2 0 0 0 0 -0.32c-4 -5.14 -4.48 -10.78 -1.34 -15.44a11.76 11.76 0 0 1 12.36 -5.26c6.76 1.88 8.6 10.36 7.64 17.24a20.7 20.7 0 0 0 -0.38 2.76 2.84 2.84 0 0 0 2.88 3.2c2.38 0 17.74 0.34 20.9 0.2 0 4 -0.34 28.28 -0.34 28.44 0 1.06 -0.44 1.48 -1.66 1.12a6.6 6.6 0 0 1 -2.4 -1.58 6.18 6.18 0 0 0 -5.86 -1.88c-7.54 2.48 -10.66 12.3 -8.84 20 0.64 3.6 3.46 8 7.08 9.14A5.76 5.76 0 0 0 254 120a10.74 10.74 0 0 1 2.46 -2.5 2.46 2.46 0 0 1 2.64 0c-0.12 2.32 0.12 22.92 0.18 25.26 -1.14 0.12 -22.3 3.54 -24.26 3.84a14.44 14.44 0 0 0 1.22 -9.48c-4 -12 -19.44 -7.1 -20.56 3.56a9.88 9.88 0 0 0 3.24 8.7c-3.58 0.64 -17.56 3.7 -21.16 4.48a142.22 142.22 0 0 1 -2.14 -29.06c3.88 2.68 10.96 2.98 14.22 -0.34 5.54 -7.78 3.8 -25.22 -5.42 -28a6.86 6.86 0 0 0 -7.5 2.2c0 -4.32 -0.62 -28.62 -0.64 -32 5.82 0.02 16.04 -0.32 21.54 -2.4zM136 128.32a0.52 0.52 0 0 0 -0.88 -0.52c-6.84 7.32 -13.82 6.38 -18 -1.52 -4 -7.1 -3.82 -19.12 0.54 -24.72 5.88 -5.7 12 -3.06 17.28 3.14a0.2 0.2 0 0 0 0.34 -0.14c0 -0.32 -0.66 -32.12 -0.7 -35.58L152 68c-2.28 14 2.96 19.1 6.3 20.94A14.1 14.1 0 0 0 174 86.52c5.28 -4.68 6.64 -12 3.66 -19.54 5.76 -0.54 11.68 -0.32 17.44 -0.3 0 9.12 0.54 33.64 0.76 34.92a0.2 0.2 0 0 0 0.36 0c8.9 -13.3 18 5.86 15.16 15.44 -0.36 2.84 -1.6 7.66 -5.88 8.3a12.92 12.92 0 0 1 -10.1 -2.16 0.54 0.54 0 0 0 -0.78 0.62 128.14 128.14 0 0 0 0.16 15.54 132.38 132.38 0 0 0 1.98 14.66 171.5 171.5 0 0 1 -22.58 4c5.58 -8.26 5.02 -13.38 3.58 -16.22a10.72 10.72 0 0 0 -10 -5.2c-14 0 -19.5 16.22 -12 24.44 -3.72 0.66 -13.24 2.72 -16 3.24C139.52 161.36 136 128.9 136 128.32zM105.24 272c0.56 -2 2 -3.76 2.68 -5.84 1.42 -4.22 1.28 -10 -1.44 -13.56a14 14 0 0 0 -14.64 -4.24c-10.36 3.12 -14.5 16.2 -8.6 25.26 8.78 11.62 -17.52 11.46 -22.98 13.16 -1.06 -18.36 -3.1 -40.42 -3.44 -40.9a0.18 0.18 0 0 0 -0.34 0c-1.78 5.44 -8.58 6.78 -10.6 6.26a0.22 0.22 0 0 0 -0.26 0.18c-18.16 -3.16 -17.18 -26 -7.72 -33.18a13.7 13.7 0 0 1 4.94 -2.32 0.2 0.2 0 0 0 0.24 0.16c2.94 -0.52 10 2.54 11.48 4.54a0.2 0.2 0 0 0 0.36 -0.14c-0.52 -5.72 -4.3 -38 -5.52 -46.76a316.46 316.46 0 0 0 33.14 -2.98c2.84 5.4 -1.06 8 -1.32 13.88a14.8 14.8 0 0 0 1.16 6.58c3.12 7.04 12.74 8 19.24 4.18 5.9 -3.54 7.36 -9.76 5.6 -13.54a24.62 24.62 0 0 0 -2 -3.22 14 14 0 0 1 -2.32 -9.28c8 -0.66 16.12 -1.62 24 -2.82 0.1 9.4 1.66 34 2 35.28a0.62 0.62 0 0 0 0.78 0.32c6.82 -4.2 16 -2.7 18.92 5.08 2.54 6.78 2 18.54 -6.48 22a12.66 12.66 0 0 1 -11.82 -1.32 0.56 0.56 0 0 0 -1.02 0.36c0.72 9.26 5.4 36 5.84 38.5 -17.46 4.96 -32.46 14.98 -29.88 4.36zm71.28 59.46c2.48 -28.98 -24.94 -20.84 -22.42 -0.68a21.64 21.64 0 0 0 1.42 5.88c-1.08 0.48 -12.88 6.28 -14 6.78 0 -1.2 -0.74 -29.64 -0.72 -31.06a0.6 0.6 0 0 0 -1.18 -0.16c-5.86 7.18 -15.7 7.34 -19.84 -1.36 -2.9 -6 -0.16 -13.06 4 -17s10.3 -2.68 14 0.24a0.64 0.64 0 0 0 1.04 -0.16c0 -0.18 -2.2 -23.16 -2.42 -25.34 1.6 -0.5 14 -4.22 16.54 -4.96a14.62 14.62 0 0 0 -0.86 4.82 48 48 0 0 0 0 5.88 11.46 11.46 0 0 0 4.76 9 11.78 11.78 0 0 0 10.18 0.84c5.72 -2.64 8.68 -12.52 6.2 -18a8.88 8.88 0 0 1 -0.96 -4.84 4.64 4.64 0 0 1 1.3 -2.92c0.8 -0.74 13.3 -4 17.74 -5.8 0.16 3.8 0.92 20.86 0.96 21.82 -0.2 0.6 0.66 1.04 0.94 0.44a9.6 9.6 0 0 1 6.5 -5.56 6.86 6.86 0 0 1 6.76 1.22c3.12 2.76 4 8.76 3.42 13.28 -1.26 10.24 -7.46 13.22 -15.62 10a0.62 0.62 0 0 0 -0.7 0.2c-2 4.24 -1.24 8.88 -0.78 15.46 0.28 3.82 0.76 10.84 1.02 13.06 -2.88 1.56 -13.8 7.12 -17.28 9zM248 261.78c-5.78 12.14 4.3 23.74 14 16 0 4.28 -0.14 8.64 -0.26 13.34 -0.66 0.3 -24.28 11.68 -26 12.32a0.52 0.52 0 0 0 -0.3 0.8 44.56 44.56 0 0 1 5.18 4.28c4.26 5.06 -0.26 12.9 -6.2 16a16.82 16.82 0 0 1 -5.68 1.78c-8.8 -0.98 -9.84 -10.58 -4.92 -18a0.24 0.24 0 0 0 0 -0.26c-0.18 -0.2 1.72 -0.96 -29.28 14.18 0 -1.56 -1.26 -19.78 -1.28 -20.94a15.68 15.68 0 0 1 1 -6.28c18.96 6.86 20.52 -20.14 11.62 -26.22 -2 -1.4 -6.5 -2.72 -12.8 4.26 0 -3.88 -0.94 -20.38 -0.86 -20.86s0.42 0 -8 -4.3c-0.24 -0.12 -10 2.9 -12.48 3.66 -9.14 2.78 -11.46 5.34 -10.52 12.72a5.74 5.74 0 0 0 1.14 2.28 14 14 0 0 1 -1.62 17.16c-3.64 -0.16 -6.58 -3.66 -7.32 -7a26.62 26.62 0 0 1 -0.48 -6.8 14.88 14.88 0 0 1 1 -6.44 0.2 0.2 0 0 0 -0.16 -0.28c-1.1 -0.12 -5.62 -1.26 -6.28 -4.5 0 -0.1 -0.16 -0.16 -0.24 -0.16a66.92 66.92 0 0 0 -12.22 3.66c-1.6 -8.2 -4.22 -28 -4.62 -31.76a13.42 13.42 0 0 0 19.2 -6.32 26.52 26.52 0 0 0 0.58 -14.94c-2.68 -9.24 -12.56 -11.78 -20.42 -7.4 -0.16 -3.5 -1.7 -31.62 -1.86 -34.42 2.94 -0.48 29.18 -5.3 29.4 -5.82a0.24 0.24 0 0 0 0 -0.2 15.28 15.28 0 0 1 -3.6 -11.32 14.64 14.64 0 0 1 8.74 -11.5c7.28 2.3 6.32 11.04 0.96 16.6a0.16 0.16 0 0 0 0 0.16 5 5 0 0 0 2.12 3.9A154.6 154.6 0 0 0 182 158l2 28.62a0.2 0.2 0 0 0 0.28 0.18c1.54 -0.68 7.46 1.18 8.58 3.02a0.22 0.22 0 0 0 0.24 0c0.22 0 0.12 2.24 0.16 -34 3.28 -0.7 23.4 -4.88 26.82 -5.88a0.46 0.46 0 0 0 0 -0.86c-8.16 -6.3 -0.92 -19.52 8.42 -17.86a9.06 9.06 0 0 1 6.98 10.26c-0.24 2.12 -2.64 6.44 -1.6 6.18 1.82 -0.26 6.54 -1.02 11.26 -1.78 -4 2.8 -6.16 9.1 -7.6 11.44 -4.18 -4.16 -7.84 -6.2 -11.2 -6.2 -5.68 0 -10.24 5.72 -15.28 10.64 -5.66 6.26 -0.86 19.54 6 23.12a12 12 0 0 0 8.18 1.4c-2.24 4.3 -8.16 15.58 -9.68 18.46 -6.26 9.54 4.58 20 14.2 25.9 2.86 1.72 9.24 -3.28 9.88 -3.5a0.24 0.24 0 0 0 0.12 -0.12s0 -0.14 -0.12 -0.38a6.7 6.7 0 0 1 1.2 -8.62c4.24 -2.18 9.54 0.98 11.32 5.36a16.92 16.92 0 0 1 1.66 8c-9.18 2.88 -55.04 16.78 -59.28 18q-0.28 -15.1 -0.52 -30.22a8.94 8.94 0 0 1 -12 -1.8c-4.42 -4.68 -3.56 -12 -3.1 -14.76 0.54 -9.24 7.06 -10.56 11.76 -9.6a10.98 10.98 0 0 0 -1.6 -1.52c-8.16 -5.06 -15.8 -1.48 -18.16 5.7 -4.4 16.92 1.18 27.02 14.34 28.2l1.78 21.12s7.46 3.66 7.64 3.62c4 -1.5 52.48 -15.4 59.16 -18.38a12.64 12.64 0 0 1 -0.84 3.68 88.22 88.22 0 0 1 -6 11.18c-1.56 2.98 2.42 6.54 7.34 9.72a9.8 9.8 0 0 0 -6.34 5.46zm20.16 1.38c-2.6 -1.58 -16.86 -10.22 -18 -11.12a7.54 7.54 0 0 1 -2 -2c-1.4 -2.6 1.78 -5.38 2.98 -8a39.34 39.34 0 0 0 3.18 -6.74c2.44 -7.22 -1.82 -18.98 -10.32 -18.98a8.46 8.46 0 0 0 -2 0.24 8.36 8.36 0 0 1 7.54 -3.12 13.24 13.24 0 0 1 10 7.48c4 9.46 -4.26 22.54 -6 25.06a0.18 0.18 0 0 0 0 0.28l21.88 13.66c-1.14 0.58 -5.86 2.56 -7.22 3.24zm9.42 -44.74a6 6 0 0 1 -5.34 -7.08 5.66 5.66 0 1 1 5.34 7.08zm8.62 18.18c0.98 4.16 6.64 12 13.26 12.28 -5.64 3.02 -13.62 5.22 -18.56 1.16zm25.24 111.64c-2.4 0.48 -15.26 2 -18.66 2 -0.52 -2.84 -2.78 -15.74 -3.36 -19.66a122.64 122.64 0 0 0 23.86 2.22 114.52 114.52 0 0 0 -1.8 15.44zm57.46 2.9c-2.38 0.46 -15.82 2 -19.44 2 -1.12 -3.36 -6.62 -18.76 -8.36 -23.6a64.88 64.88 0 0 0 8 -2.26c0.26 0 0.78 -28 0.86 -29.88 2.8 6 12 25.62 12.8 26.82a4.18 4.18 0 0 0 3.16 1.8 9.58 9.58 0 0 0 2.92 -0.24 0.28 0.28 0 0 0 0 0.14c-0.26 4.32 -0.28 21.16 0.1 25.22zm-2.34 -25.88a4.2 4.2 0 0 1 -2.14 -0.42c-1.62 -0.92 -1.56 -1.8 -14.48 -29.04 -0.16 -0.32 -0.62 -0.14 -0.64 0.18 -0.28 8 -0.8 28.62 -0.84 30.78 -3.56 0.86 -6.66 2 -14.28 3.38a123.3 123.3 0 0 1 -60 -4.26 225.16 225.16 0 0 1 1.62 -28.7c1.12 -9.46 6.66 -38 8 -44.48 4.94 1.66 10.56 -0.26 13.12 -1.36 20.32 -8 12.28 -31.84 -4.96 -30.98 0.34 -0.66 0.72 -1.34 1.12 -2a11.24 11.24 0 0 0 9.42 -1.76c0.96 -0.72 1.9 -2.16 3.18 -2.16 0.12 0.28 2 3.74 3.66 4a5.26 5.26 0 0 0 2.86 -0.46 7.62 7.62 0 0 0 4.72 -3.46c13.28 -1.04 26.66 -2.8 38.52 -9.14 2 9.72 17.42 80.28 18.32 84.8 1.8 9 3.84 28.66 4 29.38 -3.26 2.7 -7 5.68 -11.16 5.7z" stroke-width="1"/><path d="M315.4 166.44a2 2 0 0 0 1.48 -1.76c0.24 -1.42 -0.28 -4.28 -2.26 -3.54a3.18 3.18 0 0 0 -0.94 4.84 1.88 1.88 0 0 0 1.72 0.46zm-0.8 -4.66c0.72 -0.38 1.18 -0.14 1.48 0.56a4 4 0 0 1 0.24 2.24 1.38 1.38 0 0 1 -2.18 1 2.58 2.58 0 0 1 0.46 -3.8zm1.4 14.1a2.84 2.84 0 0 0 -0.24 4.48 2 2 0 0 0 3.16 -1.78 2.78 2.78 0 0 0 -0.24 -1.38 2.58 2.58 0 0 0 -1.08 -1.14 1.64 1.64 0 0 0 -1.6 -0.18zm1.12 0.52a2.82 2.82 0 0 1 0.98 0.9 2.44 2.44 0 0 1 0 2.2 1.56 1.56 0 0 1 -2.76 -1.12c-0.06 -1.64 1.02 -2.38 1.84 -1.98zm-11.8 3.46c1.2 0 1.78 -1.46 1.58 -2.66a2 2 0 0 0 -1.58 -1.68c-1.9 -0.08 -2.56 4.34 0 4.34zm0.76 -0.94c-0.86 1.42 -2 -0.14 -2 -0.82a3.44 3.44 0 0 1 0 -0.9c0.78 -2.66 3.28 -0.38 1.92 1.72zm-1.84 -12.92c1.52 0.26 2.66 -2.96 1.5 -4.7 -0.8 -1.22 -2 -0.64 -2.54 0.76a4 4 0 0 0 -0.38 1.52c0 1.62 0.98 2.24 1.42 2.42zm-0.92 -2.24a5.74 5.74 0 0 1 0.14 -1.16 2.72 2.72 0 0 1 0.8 -1.32 0.6 0.6 0 0 1 0.92 0 3.34 3.34 0 0 1 0 3.6c-0.76 1.38 -1.96 0.1 -1.86 -1.22zm29.12 -60.26a1.82 1.82 0 0 0 1.74 -1.76 1.74 1.74 0 1 0 -1.74 1.76zm-18.3 5.44a6 6 0 0 0 3.86 -6.22c0 -0.56 -0.96 -0.54 -0.9 0a6.28 6.28 0 0 1 -3.1 5.84 0.22 0.22 0 0 0 0.14 0.38zm-6.52 -7.6a2.5 2.5 0 0 1 -1.54 -0.14c-0.42 -0.3 0.74 -3.78 0.68 -4.9 0 -0.48 -0.76 -0.48 -0.74 0a26.96 26.96 0 0 1 -0.94 4 1.46 1.46 0 0 0 0.64 1.64 2.52 2.52 0 0 0 2 0.12 0.38 0.38 0 0 0 -0.1 -0.72zm4.38 -6.26a19.62 19.62 0 0 0 0 -2.64 0.5 0.5 0 0 0 -0.48 -0.5 0.54 0.54 0 0 0 -0.54 0.52c0 0.1 0 2.36 0.16 2.62a0.46 0.46 0 0 0 0.86 0zm-9.62 -1.94a0.5 0.5 0 0 0 -1 0 10.32 10.32 0 0 0 0.22 2.64 0.5 0.5 0 0 0 0.96 -0.26 12 12 0 0 1 -0.18 -2.38zm1.74 -5.14c-1.84 0.48 -2.32 1.54 -2.44 2.12a0.34 0.34 0 1 0 0.66 0.18 2.54 2.54 0 0 1 2 -1.74 0.28 0.28 0 0 0 -0.22 -0.56zm7.48 0.64A3.54 3.54 0 0 0 308 88a0.28 0.28 0 0 0 0.14 0.56c2 -0.16 2.56 0.3 2.96 0.62a0.34 0.34 0 0 0 0.5 -0.54zm7.64 -46.54a21.08 21.08 0 0 0 3.4 3.78c2.88 3.06 0.16 5.84 0 6.5a5.04 5.04 0 0 0 -0.3 3.08c0.76 2.18 4.2 2.62 5.1 2.74a5.48 5.48 0 0 0 4.72 -0.96 4.72 4.72 0 0 0 0.9 -2.76c0.1 -0.88 0.22 -5.08 2.72 -6.62a26 26 0 0 1 4.2 -1.42c5.52 -2.16 7.52 -14.18 1.04 -20.22a15.38 15.38 0 0 0 -12.18 -3.74 13.04 13.04 0 0 0 -10.88 10 13.84 13.84 0 0 0 1.28 9.62zm6.88 -18.1a14.58 14.58 0 0 1 12.74 1.52c8.44 5.44 6.22 18.92 0.26 20.62a10.58 10.58 0 0 0 -4.28 1.66 6.92 6.92 0 0 0 -2.2 3.72 15.26 15.26 0 0 1 -8.22 -1.28 3.46 3.46 0 0 0 0.16 -2.38A7.58 7.58 0 0 0 322 44.4a10.82 10.82 0 0 1 -3.7 -7.78 12.3 12.3 0 0 1 7.82 -12.62z" stroke-width="1"/><path d="M326.72 34.72c0 0.2 0.36 7.84 0.32 11.5a0.26 0.26 0 0 0 0.5 0c0 -2.18 -0.18 -9.62 -0.32 -11.16a48 48 0 0 0 6.2 3.34c-0.28 0.84 -2 7.18 -2.28 9.58a0.24 0.24 0 1 0 0.46 0.12c0.68 -3.08 2.38 -9.44 2.42 -9.6 2.4 0.26 4.12 -1.5 3.82 -3.06s-2.64 -2 -4.22 2.34a28.56 28.56 0 0 1 -6.48 -3.48v-0.84c-0.14 -1.06 -0.9 -2.58 -2.24 -2a0.96 0.96 0 0 0 -0.46 1.26c0.18 0.8 2.04 1.86 2.28 2zm9.2 0.32c0.98 -0.62 1.66 0 1.36 1.04a2.96 2.96 0 0 1 -3.06 1.76 5.1 5.1 0 0 1 1.78 -2.8zM324.98 32c0.64 -0.62 1.38 0.28 1.54 0.84a5.04 5.04 0 0 1 0.16 1.1c-0.1 0.06 -2.4 -1.22 -1.7 -1.94zM342 19.26c1.26 -3.02 2.8 -5.88 4.14 -8.88 0.12 -0.28 -0.28 -0.54 -0.44 -0.26a64.38 64.38 0 0 0 -4 9.08c0.02 0.16 0.3 0.24 0.3 0.06zM318 24a0.18 0.18 0 0 0 0.34 0 62 62 0 0 1 -1.22 -7.44c0 -0.38 -0.64 -0.38 -0.6 0A63.26 63.26 0 0 0 318 24zm30.66 6.48a14.44 14.44 0 0 0 8.38 -4.66c0.26 -0.32 -0.22 -0.8 -0.46 -0.44 -1.76 2.5 -6.52 4.32 -8 4.72 -0.28 0.06 -0.16 0.44 0.08 0.38zm-49.6 3.86a12.66 12.66 0 0 0 6.48 1.4c0.24 0 0.24 -0.4 0 -0.38a12.5 12.5 0 0 1 -6.22 -1.46 0.26 0.26 0 0 0 -0.26 0.44zM155.8 253.78a1.14 1.14 0 1 0 1.14 1.14 1.16 1.16 0 0 0 -1.14 -1.14zm14.2 -8.3a1.24 1.24 0 1 0 1.24 1.24 1.24 1.24 0 0 0 -1.24 -1.24zm-9.42 -22.3a1.26 1.26 0 1 0 1.24 1.24 1.26 1.26 0 0 0 -1.24 -1.24zm-14.96 -32.02a1.24 1.24 0 1 0 1.24 1.24 1.26 1.26 0 0 0 -1.24 -1.24zm24.52 -4.4a1.3 1.3 0 1 0 1.3 1.3 1.3 1.3 0 0 0 -1.3 -1.3z" stroke-width="1"/></g></svg>