<svg xmlns="http://www.w3.org/2000/svg" id="Digital-Call-Centre--Streamline-Milano.svg" viewBox="12.91 9.52 374.17 380.95"><desc>Digital Call Centre Streamline Illustration: https://streamlinehq.com</desc><g fill="#000000"><path d="M175.88 43.1c-1.34 -1.6 -3.28 0.12 -2.12 1.74s3.1 -0.18 2.12 -1.74zM148.42 161.88a7.34 7.34 0 0 0 5 -1.16 6.32 6.32 0 0 1 -1.18 1.7 0.38 0.38 0 0 0 0.44 0.62A5.68 5.68 0 0 0 155.56 158a0.76 0.76 0 0 0 -1.44 -0.38 5.72 5.72 0 0 1 -5.58 3.26 0.52 0.52 0 0 0 -0.12 1zM146 156.78a2.58 2.58 0 0 1 -1.9 -0.64c1.02 -1.02 2.22 -2.3 1.86 -3.7a0.42 0.42 0 0 0 -0.8 0.22c0.32 1.38 -2.26 2.3 -2.52 3.26s2 2.7 3.6 1.82a0.52 0.52 0 0 0 -0.24 -0.96zm-4 -10.24a0.56 0.56 0 0 0 -1.12 0c0 0.5 -0.32 2.44 -0.32 2.9a0.8 0.8 0 0 0 1.58 0C142 148.92 142 147 142 146.54zm10.5 4.8c1.28 0 0.66 -1.72 0.66 -3.66 0 -0.74 -1.08 -0.68 -1.12 0s-0.32 2.44 -0.32 2.9a0.76 0.76 0 0 0 0.78 0.76zm1.32 -6.02c2 0.28 1.68 1.46 2.2 1.56a0.4 0.4 0 0 0 0.48 -0.5A3.4 3.4 0 0 0 154 143.82a0.76 0.76 0 1 0 -0.18 1.5zm-3.66 122.78c0.42 1.74 1.6 3.46 3.34 3.38 2.54 -0.16 3.82 -4.6 1.14 -7.22s-4.98 1.04 -4.48 3.84zm-97.6 -49.96c-1.72 0.18 -2.88 2.76 -2.52 4.7s1.6 3.44 3.32 3.36c2.54 -0.16 3.82 -4.6 1.14 -7.22a2.56 2.56 0 0 0 -1.94 -0.84zm80.54 -11.98c12.66 0 12 0.14 12 -0.3 0 -3.38 0 -3.62 -0.3 -3.62 -12.64 0 -12 -0.12 -12 0.3 0 3.46 -0.12 3.62 0.3 3.62zm134.42 24.3c0 3.72 0 4.14 0.1 4.34s-0.22 0.12 15.04 -0.42c0.4 0 0.28 -0.22 0.28 -4.34a0.3 0.3 0 0 0 -0.3 -0.3c-15.78 0.26 -15.12 0.26 -15.12 0.72z" stroke-width="1"/><path d="M386.94 192.54c-0.4 -3.44 -2.44 -7.28 -6.12 -8.16 -23.46 -5.2 -57.76 -10 -64.38 -10.32v-6.3c9.4 -1.38 11.54 -17.62 6.36 -22.86a11.62 11.62 0 0 0 -4.28 -10.9c-3.12 -6.52 -4 -9.22 -11.16 -9.38a36.24 36.24 0 0 1 -5.36 -6.24c-4 -5.52 -10.6 -10.96 -17.44 -10.16a16 16 0 0 0 -12.66 11.8 16.86 16.86 0 0 0 8.56 19.32 0.3 0.3 0 0 0 0.36 -0.46 19.22 19.22 0 0 1 -4.92 -10.48 1.08 1.08 0 1 1 2.12 -0.3 20.56 20.56 0 0 0 7.34 12.7 6.32 6.32 0 0 0 1.52 0.14 0.32 0.32 0 0 0 0.18 -0.54 14.48 14.48 0 0 1 -5 -10 1.3 1.3 0 1 1 2.6 -0.24 12.4 12.4 0 0 0 6.22 10 6.72 6.72 0 0 0 2.12 -0.5 0.3 0.3 0 0 0 0 -0.54c-3.9 -2.46 -4.82 -7.24 -2.4 -7.36a1.24 1.24 0 0 1 1.3 1.34 7.4 7.4 0 0 0 4.34 5.54 0.34 0.34 0 0 0 0.2 0c6.56 -1.36 10 1.06 12.46 8.64 -3.64 5.68 -2.58 17.6 4 20.16a29.62 29.62 0 0 1 -7.74 6.9 16.18 16.18 0 0 1 -8 3.24 5.88 5.88 0 0 0 -5.54 -0.84c-1.3 0.44 -3.06 1.58 -2.86 2.72s2.32 1.62 3.6 1.62a6.6 6.6 0 0 0 4.76 -2c6 0 14 -6.48 17.32 -11.26 1.1 0.14 0 -1.68 0.66 18.96 -1.72 1.06 -3.38 2.2 -4.98 3.4a92 92 0 0 0 -8.26 7.48 49.74 49.74 0 0 0 -9.62 13.36 45.48 45.48 0 0 1 -1.44 -23.18 0.78 0.78 0 0 0 -0.4 -0.9c-11.18 -4.32 -16.52 -10.22 -17.02 -19.76 0 -2.22 -0.84 -21.72 2.52 -27.88a0.3 0.3 0 0 0 0 -0.34 36.2 36.2 0 0 1 -3.3 -4.14 0.3 0.3 0 0 0 -0.52 0c-3.12 4.92 -3 7.7 0.54 10.58a122.54 122.54 0 0 0 -0.72 21.26 20.42 20.42 0 0 0 8.78 17.16 22.58 22.58 0 0 0 8.18 3.84 119.04 119.04 0 0 0 -8.74 8.34c-21.66 6.44 -34 27.48 -38.98 44.8a3.1 3.1 0 0 0 1.16 3.58c-6 14.66 -5.78 15.08 -6.78 16.42 -0.72 0.98 -16.86 11.34 -21.86 14.66 -9.26 -42.76 -8.56 -39.88 -8.78 -40s0.14 -0.24 -5.18 3.24c-0.26 0.16 -1.24 -4.86 14.78 70.96 -4.4 -0.68 -94.54 -12.88 -95.1 -13s0.36 3.44 -14.76 -61.86l92.7 2.22a58.16 58.16 0 0 0 6.58 -4 0.3 0.3 0 0 0 -0.16 -0.56c-2.82 0 -0.86 1.06 2.4 -7.08A177.66 177.66 0 0 0 215.46 180a10.3 10.3 0 0 0 -3.22 -9.1c-2.38 -2 -27.7 -3.84 -35.1 -4.34 -1.64 -3.7 -1.54 -7.42 -1.42 -11.8 0.32 -12.3 -1.34 -25.4 -13 -29.4 -2.34 -2 -7.3 -3.74 -10.4 -1.48 -10.8 -2.76 -21.18 6.8 -20.68 18.48 0 0.36 0.2 0.28 2.4 0.48a104.86 104.86 0 0 1 -4.38 26.16 0.3 0.3 0 0 0 0.18 0.36 37.18 37.18 0 0 0 16.72 2.36 4 4 0 0 1 0.32 1.76c0 0.4 0.42 -0.14 -3.52 3.4 -0.72 0.64 -1.4 1.26 -1.56 1.38 -15.8 5.3 -20.84 15.12 -26.76 29.44 -0.68 1.4 -0.8 2.68 0.58 3.4 -2 6.3 -3.36 10.64 -3.68 11.08s-11.22 7.16 -14.98 9.52c-6.26 -29.14 -5.72 -27.54 -6.26 -27.18 -3.46 2.4 -3.44 2.28 -3.4 2.56l9.6 47.52 -62.78 -8.38c-1.26 -0.38 -0.14 2.92 -10.48 -41.6l61.22 1.4a30.46 30.46 0 0 0 4.2 -2.86 0.3 0.3 0 0 0 -0.16 -0.54c-65.62 -1.44 -62.96 -1.44 -63.16 -1.3C22 203.82 22 203.74 22 204c1.1 4.8 5.22 22.84 7.8 33.82 -3.66 0.34 -14 1.34 -16.54 1.88a0.44 0.44 0 0 0 0 0.86c2.64 0 14.2 -0.96 16.82 -1.2 0.96 4.12 1.66 6.96 1.76 7.14 0.84 1.52 -2.18 0.68 66 9.84 0.3 0 1.78 -0.2 10 -1.18 0.56 2.46 1.1 4.9 1.62 7.26 -16 -2.7 -91.08 -12.98 -94.22 -13.18a0.5 0.5 0 0 0 -0.12 1c1.02 0.18 88.44 12.78 94.72 13.8 0.5 2.32 1.02 4.56 1.5 6.72 -15.42 -3.06 -92.1 -15.34 -95.56 -15.48a0.48 0.48 0 0 0 -0.12 0.96c1.26 0.26 91.04 15.16 96 16.14 0.98 4.36 1.88 8.34 2.64 11.74 -14.7 0.86 -84.96 6.42 -87.8 6.84 -0.64 0 -0.78 10.98 0.26 11.16l7.78 1.24c0 5.66 1.7 76.52 2 85.78a1.18 1.18 0 1 0 2.34 0c0 -3.68 -0.84 -18.86 -1.74 -85.3 28.56 4.54 222.24 34.46 222.88 34.32l2.34 -0.56c0 2.12 1.38 50.1 1.42 52.46 0 0.6 2.4 0.28 2.4 -0.36 0 -4 -0.52 -51 -0.54 -52.9l93.14 -22.38c0 5.34 -0.64 63.72 -0.62 74.1 0 2 2.66 2 2.68 -0.48 0 -10.18 1.32 -70.34 1.42 -74.5l6.46 -1.54c0.32 0 0.22 0.58 0.22 -11.3 0 -0.36 -0.3 -0.3 -1.42 -0.34 3.52 -14.8 21.34 -92.92 19.42 -107.82zM137.32 161.72c-1.52 -4.44 -0.32 -14.44 0.84 -19.32a3.5 3.5 0 0 1 3.42 2.16 0.48 0.48 0 0 0 0.88 -0.34 4.9 4.9 0 0 0 -0.66 -1.42 12 12 0 0 0 2.56 -0.2c0.46 0 1.3 -3.3 2 -5.3 1.18 5.44 1.06 5.32 1.38 5.36 1.58 0.16 2 0.34 2.18 0a18.9 18.9 0 0 1 2 -4.82 12.28 12.28 0 0 1 1.4 4.72 0.34 0.34 0 0 0 0.28 0.28 13.38 13.38 0 0 0 5.88 -0.4 4.78 4.78 0 0 1 2 2.68 11.6 11.6 0 0 0 -1.48 5c-0.42 2.62 -0.62 7.22 3.54 9.42a23.34 23.34 0 0 1 -9.88 6.28c-0.58 -0.96 -2.8 -1.18 -4.12 -0.74 -0.98 0.32 -2.26 1.16 -2.12 2 0.24 1.32 4 1.86 5.86 0a12.76 12.76 0 0 0 6.2 -2.54 30.3 30.3 0 0 0 5.34 -4.48c0.7 0.26 0.22 -0.96 0.24 12.78 -3.26 2.3 -7.02 3.22 -15.26 15.48 -2.36 -17.74 -1.72 -17.1 -2.52 -17.36 -5.28 -2.24 -8.62 -5.38 -9.96 -9.24zm-34.46 84.44c-0.2 -0.22 0 0.12 2 -2a0.34 0.34 0 0 0 -0.46 -0.52 10.26 10.26 0 0 1 -3.26 2 1.82 1.82 0 0 1 -1.22 0c-0.38 -1.82 2.72 -3.68 4.62 -5.42 0.38 1.66 0.78 3.52 1.24 5.52a2.88 2.88 0 0 1 -2.92 0.42zm55.7 -24.76a78.22 78.22 0 0 0 17.44 10.3l-24.74 -0.6c4.14 -2.68 3.82 -1.96 7.3 -9.7zm-11.56 -46c0.18 2.86 0.46 5.76 0.82 8.64 -5.08 -7.92 -6.8 -2.94 -0.82 -8.68zm19.74 -3.58zM196 205.54a131.28 131.28 0 0 1 3.58 -20.16c1.32 -4.32 2.44 -10.94 6.38 -13.32 4.96 -2.66 8.12 2 7.84 7 -1.24 14.84 -5.44 42.24 -13.32 53.22h-3.4a100.52 100.52 0 0 0 -1.08 -26.74zM167.14 158.56a7 7 0 0 1 -2.58 -5.64c0 -2.52 1.12 -8.46 3.74 -7.72a0.5 0.5 0 0 0 0.26 -0.96c-3.6 -0.88 -5.3 4.58 -5.58 8.22a9.08 9.08 0 0 0 1.26 5.42c-3.34 -2 -2.94 -5.7 -2.2 -9.54a5.42 5.42 0 0 1 2.46 -3.84 4.46 4.46 0 0 1 6.66 1.04c2.98 3.74 1 11.28 -4.02 13.02zM137.76 185.34a0.3 0.3 0 0 0 0.4 0.42l6.7 -3.36a14.42 14.42 0 0 1 4 7.68 0.62 0.62 0 0 0 1.06 0.28c1.52 -1.74 5.84 -8 7.38 -9.72a20.5 20.5 0 0 0 8 7.68 0.28 0.28 0 0 0 0.42 -0.16A82 82 0 0 1 172 176.9c12.28 1.24 19.8 13.52 21.82 25.2a99.2 99.2 0 0 1 1.76 30l-11.34 -0.1a135.28 135.28 0 0 0 7.76 -15.56 0.42 0.42 0 0 0 -0.76 -0.3c-2.24 4.86 -8 14.82 -8.9 15.26a3.82 3.82 0 0 1 -3.12 -0.18 80.34 80.34 0 0 1 -18.6 -10.34c-2.26 -1.58 -3.54 -2.72 -2.36 -5.04s8 -17.12 10.96 -22.18a0.48 0.48 0 0 0 -0.84 -0.48c-2.88 4.88 -10.4 19.34 -11.52 21.68a4.38 4.38 0 0 0 0.72 5.68 40.24 40.24 0 0 1 -3.86 6.98c-0.64 0.54 -2.72 1.9 -4.56 3.12 -0.88 0.58 1.66 0.46 -21.28 0 0.44 -6 1.62 -23.54 2.34 -27.74 0 -0.68 -0.96 -0.94 -1.08 -0.24a250.8 250.8 0 0 0 -1.7 10.38c-2.28 -0.54 -9.12 -2.4 -10.8 -3.04 -0.46 -0.18 -0.6 -0.32 -0.6 -0.56 5.4 -13.66 10.42 -23.74 25.08 -29.44zm-10.54 28.88c-0.42 3.36 -0.98 12 -1.16 16.28 -16.64 -0.4 -16.58 -0.46 -16.78 -0.34 -6.12 3.78 -6.12 3.78 -6 4 1.2 5.36 1.06 4.64 1.02 4.88a42.88 42.88 0 0 0 -4.76 4.28l-2.14 -10c3.78 -2.14 14.96 -9.16 15.52 -9.78 1.28 -1.48 3.24 -9.62 3.88 -12 1.44 0.46 7.96 2.24 10.42 2.68zm72.34 -33.28a106 106 0 0 0 -4.38 20.24c-3.7 -15.8 -11.48 -24.42 -23.2 -25.68A38.4 38.4 0 0 0 168 172a50.78 50.78 0 0 0 11.6 -0.74 0.32 0.32 0 0 0 0.22 -0.2c0.14 -0.4 -0.68 -0.64 -2.12 -3.26a263.28 263.28 0 0 1 28 2.84c-3.7 1.88 -5.08 6.52 -6.14 10.3zM167.14 142a16.66 16.66 0 0 0 -2.98 1.06c0.84 -8.26 -3.44 -16.1 -10.2 -18.76C162 122 168.1 133.68 167.14 142zm-66 109.28 -0.94 -4.32a4.16 4.16 0 0 0 1.6 -0.36c0.68 1.52 2.9 1.34 4.26 0.4 0.16 0.76 0.76 3.4 0.88 4zm216.36 -108.64a12.38 12.38 0 0 0 -4.24 1.06A25.42 25.42 0 0 0 308 126.4a8.62 8.62 0 0 1 5.74 2c4.26 5.06 3.92 12.52 3.76 14.24zm-8.58 7.66a8.68 8.68 0 0 1 6 -5.78 6.84 6.84 0 0 1 7.54 2.44c2.78 3.32 1.32 9.74 0.84 11.62 -0.4 1.52 -2 6.56 -6.6 7.58 -5.34 -2.14 -4.16 -10.8 -1.86 -16 0.88 -1.9 2.18 -3.72 4.26 -3.54a0.56 0.56 0 0 0 0 -1.1c-6.82 -0.64 -10.46 15.38 -5.66 20.24 -5.26 -2.26 -5.44 -9.76 -4.52 -15.46zM34.48 291.82c13.3 -1.04 71.36 -5.54 80.28 -6.14 1.46 6.48 2.42 10.6 2.54 10.94a2.6 2.6 0 0 0 2.34 1.66l95.74 13.04c0.34 0 30.38 -3.86 55.54 -7.12 0.36 0 0.28 0 0.28 -4h19.54a66.74 66.74 0 0 0 11.5 -0.58c6 0.36 59 2.16 59.9 2.2l-102 22.34c-15.72 -2.32 -223 -31.96 -225.66 -32.34zm239.32 -85.48c0.24 0.26 -0.42 0.48 10.18 -5a40 40 0 0 1 7.48 11.38 0.64 0.64 0 0 0 1.16 0.14 57.46 57.46 0 0 1 9.8 -13.76 41.72 41.72 0 0 0 11.88 12.34 0.3 0.3 0 0 0 0.44 -0.14c1.68 -3.86 8.56 -16.44 10.2 -19.1 31.72 11.34 34.56 46.96 35.22 80.24 0.18 9.16 0.4 18.62 -1.88 27.58 -14 -0.46 -38.5 -1.28 -50.22 -1.6 11.66 -3.04 22.8 -10.1 27.74 -23.2 2.54 0.94 5.48 2 6.36 1.7a4.44 4.44 0 0 0 1.82 -1.62 220.22 220.22 0 0 0 9.66 -24.7 0.38 0.38 0 0 0 -0.74 0c-0.84 2.42 -9.06 22.54 -10 23.68 -0.42 0.52 -0.98 1.24 -1.56 1.24s-11.9 -4.2 -16.26 -5.84c-7.32 -2.74 -17.48 -7.1 -21.54 -13.1a6.26 6.26 0 0 1 0.3 -5.14 189.4 189.4 0 0 1 15.86 -32.52 0.48 0.48 0 0 0 -0.82 -0.52 164.5 164.5 0 0 0 -16.1 31.08c-1.32 3.3 -2.4 6.48 0.44 9.58 -0.76 1.38 -5.56 11.86 -6 12.38 -1 0.68 -33.08 11.68 -38.32 13.3 -0.52 -41.06 5.42 -53.62 4.34 -54.64a0.5 0.5 0 0 0 -0.82 0.24 181.86 181.86 0 0 0 -3.18 16.4 52.78 52.78 0 0 1 -14.34 -2.94c-1.54 -0.56 -2.54 -1.02 -2.28 -2.36 5.48 -21.3 18.92 -37.46 36 -43.4 -5.26 8.6 -5.04 8.06 -4.82 8.3zm15.62 -0.6a38.86 38.86 0 0 0 -8.12 -8.52 60.76 60.76 0 0 1 7.72 -7.86 45.62 45.62 0 0 0 0.4 16.38zM250.46 296c0 1.4 0 1.72 -0.26 1.86a6.88 6.88 0 0 1 -4.2 -0.26c-0.52 -0.22 -0.48 -0.8 -0.48 -1.42a7.66 7.66 0 0 0 4.94 -0.18zm0 -1.46a7.82 7.82 0 0 1 -4.94 0.18v-1.1a14.68 14.68 0 0 0 4.98 -0.54c-0.04 0.46 -0.06 0.92 -0.06 1.46zM247.4 292c-2.52 0.18 -5.56 0 -5.86 -2.42 -0.24 -2 2 -3.24 2.94 -3.7 2.38 -1.16 8.8 -1.26 10.18 0.74 0.92 1.38 -1.26 4.98 -7.26 5.38zm-14.82 -6.94a10.98 10.98 0 0 1 7.7 2.88c-1 2.74 0.98 5 3.8 5.48v2.14a25.04 25.04 0 0 1 -8.28 1.24 50.16 50.16 0 0 1 -6.6 -0.26c-1.66 -0.38 0.74 -1.46 2.32 -2 0.62 -0.26 1.34 -0.42 1.12 -1a0.5 0.5 0 0 0 -0.6 -0.32c-6.46 1.8 -7.2 2.78 -8.36 2.66 -0.66 0 -0.92 -0.26 -0.96 -0.38 -0.18 -1.08 6.2 -4.14 6.7 -4.44a0.5 0.5 0 0 0 -0.38 -0.9c-6.92 2.44 -9.18 5.5 -10.78 6.1l-0.5 -2.32c0.26 -0.34 0.52 -0.62 0.7 -0.82 4.84 -5.46 9.36 -8 14.12 -8.02zm23.56 1.74c3.18 -1.02 39.2 -12.84 39.2 -12.84a6 6 0 0 0 3.72 -2.76c0.86 -1.74 4.36 -9.18 5.2 -11.22 6.98 6.74 22 11.52 30 14.62 -2.46 4.54 -4.68 9.4 -8.56 12.88a49.52 49.52 0 0 1 -33.42 11.08c-13.3 -0.1 -27.02 0.42 -40.38 -1.02v-5a6.5 6.5 0 0 0 4.24 -5.7zm-34.78 9.02c0.9 2.32 3.66 1.28 5.78 0.48a2 2 0 0 0 1.02 1.42 35.76 35.76 0 0 0 15.86 -0.6 2.98 2.98 0 0 0 0.74 1.58c1.46 1.08 5.14 1.48 6.64 0 3.24 0.5 6.98 0.8 10.92 1l-42.54 3.86 -1.32 -6.12a8.54 8.54 0 0 0 2.9 -1.58zm146 -98.96a149.08 149.08 0 0 0 -9.24 36.24c-4.48 -20 -14 -36.12 -33.4 -42.5 -1.26 -0.84 -5.28 -4.3 -7.08 -5.3 -0.22 -0.12 -0.38 0 -1.06 0.44 0 -3.08 -0.12 -6.94 -0.16 -10.36 8.8 0.36 27.58 3.88 59.76 9.32 -4.92 1.96 -7.04 7.6 -8.78 12.2zM259.04 248a197.02 197.02 0 0 0 -1.58 37.04l-1.78 0.52c-1.76 -2.64 -11.26 -3.2 -14.68 1.12 -5.02 -4.54 -14.82 -4.54 -23.72 5.34l-3.28 -14.94c4.84 -3 20.98 -13.9 22 -14.88 1.74 -1.74 2 -2.92 7.46 -17.3a49.82 49.82 0 0 0 15.58 3.1zM362 275.12a225.88 225.88 0 0 0 -3.04 -38.32A155 155 0 0 1 370 194.7a19.3 19.3 0 0 1 4 -6.7 7.22 7.22 0 0 1 6.62 -2c5.44 2 5.06 8.58 4.74 14.26 -1.18 20.56 -12.98 68.18 -19.34 100L360 300a92.88 92.88 0 0 0 2 -24.88zM259.22 336c-7.22 -0.96 -223.44 -35.32 -230.52 -36.4 -0.14 -1.02 0.14 -4.6 0.16 -5.82 5.1 0.42 230 32.38 230 32.38zM79.42 114a2.94 2.94 0 0 0 -0.5 5.78 2.52 2.52 0 0 0 2 -0.6 2.92 2.92 0 0 0 -1.5 -5.18zm12.82 -0.44a2.94 2.94 0 0 0 -0.5 5.78 2.56 2.56 0 0 0 2 -0.6 2.92 2.92 0 0 0 -1.5 -5.18zm12.58 -1.14a2.94 2.94 0 0 0 -0.5 5.78 2.58 2.58 0 0 0 2 -0.58 2.92 2.92 0 0 0 -1.5 -5.2z" stroke-width="1"/><path d="M94 139.08a6.46 6.46 0 0 1 3.44 0c0.46 0.22 12.16 4.6 12.96 4.6a0.88 0.88 0 0 0 0.3 -1.7 29.04 29.04 0 0 1 -2.52 -6.16c0.42 -0.2 0.94 -0.4 1.52 -0.62 5.44 -2.16 16.74 -6.66 17.64 -19.6A18.66 18.66 0 0 0 121.8 102c-6.18 -6.6 -16.32 -9.48 -31 -8.8 -7.56 0.32 -21.2 2.44 -27.84 12.78C59.08 112 60.44 124.6 65.6 130.4c6.2 6.16 16.8 9.4 28.4 8.68zm12.12 -4a42 42 0 0 0 2 6.26c-2.78 -0.88 -9.34 -3.5 -9.82 -3.76a5.88 5.88 0 0 0 -3.38 -0.44c-9.2 1.14 -24.92 -1.82 -29.72 -10a22.84 22.84 0 0 1 -2.48 -7.8C58 92.26 102.14 90 117.32 100.34c8.54 5.8 11.58 17.2 4.28 25.12s-15.14 8.68 -15.48 9.64zm225.7 -9.3a32.48 32.48 0 0 1 -2.72 6.78 0.88 0.88 0 0 0 0.46 1.7c3.36 -0.78 13.26 -4.7 13.84 -4.98a6.1 6.1 0 0 1 3.24 0c10.36 1.42 28.86 -2.88 33.76 -12.94a30.38 30.38 0 0 0 2.22 -18.54c-3.86 -14.2 -22.18 -17.2 -27.58 -17.8 -10 -0.94 -24.38 -1.26 -34.9 6.36 -6 4.44 -11.16 13.16 -8.36 21.78 3.32 10.64 16.8 16.4 20.04 17.64zm1.78 -0.5a0.76 0.76 0 0 0 -0.46 -0.78c-3.36 -1.18 -20 -7.74 -20.52 -21.06C312.48 92 323.52 84 334 82.32c19.56 -3.62 48.16 0.9 47.54 21.32 -0.14 4.84 -1.1 11.76 -5.82 16 -7.2 6.36 -20.7 8.74 -29.72 7.68 -3.24 -0.38 -2.1 0.34 -14.42 4.56a31 31 0 0 0 2.02 -6.6z" stroke-width="1"/><path d="M328.46 96.54h42.56a0.54 0.54 0 0 0 0 -1.06c-5.24 -0.18 -39.44 -0.74 -42.58 -0.6a0.8 0.8 0 0 0 0.02 1.66zm43.28 8.3a0.54 0.54 0 0 0 0 -1.06s-42.8 -0.16 -45.12 0a0.82 0.82 0 0 0 0 1.62c1.26 -0.02 44.92 -0.56 45.12 -0.56zm-5.46 8.8a0.5 0.5 0 0 0 0 -0.98h-38a0.88 0.88 0 0 0 0 1.74zM232 194.16a5.42 5.42 0 0 0 -4 0c-1.42 0.7 -2 1.68 -2 2.7 0.6 3.12 8.72 2.68 7.6 -1.22a2 2 0 0 0 -1.6 -1.48zm-4.52 2.74c-0.54 -0.58 0.28 -1.26 0.96 -1.56a3.64 3.64 0 0 1 4 0.5c0.84 1.46 -3.14 2.76 -5.02 1.06zm20.02 -28c-2.54 -1.54 -8.48 -0.46 -8.64 2.86 0 1.5 1.22 3.1 4 3.1a6.62 6.62 0 0 0 5.6 -2.62 2.64 2.64 0 0 0 -0.96 -3.34zm-3.5 0.66a3.08 3.08 0 0 1 2.58 0.5c2 1.72 -1.26 3.34 -3.66 3.38 -3.64 0.04 -3.96 -3.34 1.08 -3.88zm7.84 -23.8a3.12 3.12 0 0 0 -0.28 -2.54c-4.74 -6.72 -18.36 -3.52 -19.1 2 -0.7 5.14 7.76 9.68 16.24 4a6.32 6.32 0 0 0 3.14 -3.46zm-1.76 0.4a10.58 10.58 0 0 1 -4.26 2.8c-7.64 3.72 -14 -1.56 -11.22 -5 2 -2.64 9.12 -3.72 12 -2.36 2.42 0.84 4.94 2.4 3.4 4.56zM290 170.32c-0.66 0 -0.9 0.92 -0.22 1.04a8.24 8.24 0 0 0 8 -2.62A17.52 17.52 0 0 1 296 172a0.42 0.42 0 0 0 0.36 0.62c0.58 0 3.16 -2.42 3.62 -6.66a0.82 0.82 0 0 0 -1.4 -0.6C296 168 293.64 170.9 290 170.32zm-3.88 -12.66c0 -0.26 0.12 -0.48 -0.1 -0.68a0.46 0.46 0 0 0 -0.76 0.24c-0.48 2.5 -1.06 2.9 -2.44 3.62s-2.5 1.3 -1.8 2.44a6 6 0 0 0 3.38 1.62c1.84 0 1.66 -1.24 1 -1.18a4 4 0 0 1 -2.74 -0.94 5.82 5.82 0 0 0 3.46 -5.12zm-7.32 -9.12c0 0.8 -0.62 3.84 -0.52 4.26a1.02 1.02 0 0 0 2 0.18c0.16 -0.38 0.18 -3.38 0.26 -4.36a0.82 0.82 0 0 0 -1.74 -0.08zm16.42 1.96c0 0.86 -0.62 3.86 -0.52 4.26a1.02 1.02 0 0 0 0.92 0.76c1.52 0.14 1 -1.82 1.24 -4.92 0.08 -1.06 -1.52 -1.12 -1.64 -0.1zM281.32 144c-2 -0.38 -3.18 0.82 -4.14 2.96a0.54 0.54 0 0 0 0.48 0.78c0.28 0 0.4 -0.16 0.56 -0.44 1.78 -2.94 3.46 -0.74 3.72 -2.36a0.78 0.78 0 0 0 -0.62 -0.94zm16.68 -1.18a0.92 0.92 0 0 0 -0.56 1.74 4.1 4.1 0 0 1 2.94 3.82 0.52 0.52 0 0 0 1.04 0 5.38 5.38 0 0 0 -3.42 -5.56zm-60 -104.58a1.46 1.46 0 0 0 -1.58 1.24 1.44 1.44 0 0 0 1.4 1.7 1.48 1.48 0 0 0 0.18 -2.94zm-8.48 -5.74a1.46 1.46 0 0 0 -1.56 1.22 1.44 1.44 0 0 0 1.4 1.72 1.48 1.48 0 0 0 0.16 -2.94zm19.06 10.18a1.48 1.48 0 1 0 -0.18 2.94 1.48 1.48 0 0 0 0.18 -2.94zm0.16 -16a3.16 3.16 0 0 0 -6.1 -1.5 0.52 0.52 0 0 0 0.94 0.4 1.84 1.84 0 0 1 3.48 0.14 2.94 2.94 0 0 1 -2.5 3.44c-1.52 0.32 -3.38 0.18 -4.6 1.48a4.78 4.78 0 0 0 -0.42 5.18 0.4 0.4 0 0 0 0.76 -0.16c-0.56 -6 3.04 -4.12 5.7 -5.46a4.24 4.24 0 0 0 2.74 -3.52zm4.18 13.32a4 4 0 0 0 2.28 -1.04 2.78 2.78 0 0 0 0.66 -3.18c-0.8 -1.68 -3.48 -1.72 -4.48 0.92a0.52 0.52 0 0 0 0.96 0.4c0.56 -1.28 1.58 -1.34 2 -0.9s0.14 1.54 -0.8 2 -2.62 0.52 -3.38 1.82c-0.36 0.6 -0.52 1.72 0.1 1.86a0.46 0.46 0 0 0 0.54 -0.22 3.84 3.84 0 0 1 0.38 -0.46 2.18 2.18 0 0 1 1.74 -1.2zm-21.88 -18.22a2.42 2.42 0 0 0 -3.76 2.76 0.56 0.56 0 0 0 1.06 -0.32 1.26 1.26 0 0 1 1.18 -1.68 0.94 0.94 0 0 1 0.78 1.44c-0.56 0.74 -3.26 1 -1.68 5.9a0.58 0.58 0 0 0 1.14 -0.2 8.92 8.92 0 0 1 0 -3.14c0.18 -0.38 0.58 -0.58 0.88 -0.82a2.44 2.44 0 0 0 0.4 -3.94zm-54.8 26.34a0.98 0.98 0 0 0 0.74 -1.58 0.96 0.96 0 0 0 -1.38 -0.26 1.06 1.06 0 0 0 0.64 1.84zm23.76 -0.58a0.52 0.52 0 0 0 -1.02 0.26 15.8 15.8 0 0 0 1.48 3.06 0.7 0.7 0 0 1 0 0.66c-0.46 1.06 -2.22 0.94 -2 1.82a0.54 0.54 0 0 0 0.62 0.38c1.54 -0.18 3.04 -1.06 2.9 -2.64 0.02 -0.84 -1.86 -2.92 -1.98 -3.54zm-5.7 3.12a0.8 0.8 0 0 0 0.78 -1.02c-0.16 -0.5 -1.04 -2.2 -1.24 -2.68a0.68 0.68 0 0 0 -1.26 0.52c0.84 2.14 0.82 3.18 1.72 3.18zm9.38 -5.54c-0.3 -0.62 -0.5 -1.34 -1.22 -1.06s-0.34 0.94 0 1.64a20.2 20.2 0 0 0 0.74 2 0.8 0.8 0 0 0 1.46 -0.62 21.18 21.18 0 0 0 -0.98 -1.96zm-2.1 -4.7c-0.8 0 -0.64 1.34 0.12 1.28 2.44 0 1.84 1.5 2.6 1.5a0.42 0.42 0 0 0 0.42 -0.56v-0.18c-0.18 -0.64 -0.52 -2.16 -3.14 -2.04zM198 59.34a3.34 3.34 0 0 1 -3.46 -1.68 0.82 0.82 0 0 0 -1.1 -0.3c-1.2 0.68 0.4 3.24 3.16 3.24 0.66 0 2.14 -0.2 2 -0.88a0.48 0.48 0 0 0 -0.6 -0.38zm-0.8 26.18c1.08 -0.28 0.74 -1.56 0.8 -1.36a1.06 1.06 0 0 0 -1.78 -0.7c-0.8 0.76 -0.22 2.34 0.98 2.06zm0.26 2.64c-1.3 0.12 -1.24 2.5 0.36 2.38a1.22 1.22 0 0 0 -0.36 -2.38z" stroke-width="1"/><path d="M145.52 95.18a10.9 10.9 0 0 0 7.1 7.3c12.16 38 62.24 50.94 90.16 22.84a60.16 60.16 0 0 0 16.18 -26c0 -0.2 10.96 -19.66 12.2 -21.86s2.94 -2 5.08 -2 4.78 0.5 5.8 -0.78a2 2 0 0 0 0.26 -1.86 2 2 0 0 0 1.38 -3.28c1.42 -0.78 0.64 -2.36 -0.66 -3.36 -3.16 -2.42 -6.92 -0.98 -10.48 -0.32 -0.1 -0.84 -0.24 -1.76 -0.44 -2.84a0.7 0.7 0 0 0 -1.04 -0.46c-4.1 2 -3.58 5.36 -6 8 -0.32 0.36 -2.14 2.12 -4.46 4.34a39.68 39.68 0 0 0 -7.38 -21.5c11.06 -0.68 19.78 -10.82 15.42 -22.36 -7.02 -14.64 -27.76 -26.58 -43.66 -19.34 -6.62 3 -8.76 10.64 -7.48 16.94a25.1 25.1 0 0 0 -12.3 -1.4 15.4 15.4 0 0 0 -2.34 -2.76c0.26 -3.42 -0.78 -5.5 -3.1 -6.16 -7.02 -2 -24 10.62 -26.38 15.04a9.4 9.4 0 0 0 -1.38 5.16 55.4 55.4 0 0 0 -22.6 40.3c-3.26 4.94 -5.66 10.48 -3.88 16.36zm28.94 -60.94c2 -3.4 11.76 -11.38 20.42 -14 4 -1.18 5.22 -0.5 5.88 0.66 1.42 3.28 0 7.24 -1.56 10.7a29.82 29.82 0 0 1 -9.2 11.94 24 24 0 0 1 -7.2 3.1c-0.7 -1.68 -1.3 -3.04 -1.78 -4.14a26.66 26.66 0 0 0 16 -19.8 0.48 0.48 0 0 0 -0.94 -0.22 27.56 27.56 0 0 1 -15.64 18.72c-0.42 -0.9 -0.74 -1.56 -1 -2 2.8 -2.74 5.4 -7.5 5.02 -11.4a0.54 0.54 0 0 0 -1.06 0c0.16 3.56 -2.52 7.08 -4.84 10a20.36 20.36 0 0 0 -5.1 1.62 7.58 7.58 0 0 1 1 -5.18zm67.66 14.18a0.88 0.88 0 0 0 -1.06 -0.1c-3.54 2.4 -8.72 0.86 -12.88 0.14 1.42 -1 5.5 -4.52 4.22 -5.72 -0.54 -0.5 -3.66 -1.68 -4.42 -2.16 -8.62 -5.32 -12.7 -16.68 -6 -24.74 5.66 -6 16 -5.34 23.16 -2.9C254 16 269.86 27.52 268 38.84a15.3 15.3 0 0 1 -7.38 10.9c-7.22 3.54 -15.02 1.96 -18.5 -1.32zm-11.12 -4.56a16.28 16.28 0 0 1 -6 4.1 0.88 0.88 0 0 0 0 1.7c5.4 0.86 12 3.04 16.5 0.44a18.16 18.16 0 0 0 10 3.36 41.72 41.72 0 0 1 8 22.64c-11.52 11.04 -10.54 10.28 -10.96 10 -0.9 -0.82 -1.76 -1.74 -2.64 -2.62 1.3 -2.78 -0.84 -3.76 -2.56 -5.24a48.48 48.48 0 0 0 -33.02 -11.22l-3.56 -2.54c-0.14 -0.58 -0.36 -1.4 -0.46 -2s1.38 -0.58 2.38 -1.42a4.76 4.76 0 0 0 0.84 -4 89.52 89.52 0 0 0 -2.64 -17.54c1.28 -0.88 1.58 -6.34 -0.82 -10.86a30.92 30.92 0 0 1 11.88 1.52 22.22 22.22 0 0 0 13.06 13.68zM152 77.44c12.92 -17.04 20.12 -19.22 19.46 -24.26 0 -0.82 -0.68 -3.42 0 -3.62 0.42 0 1.22 3.18 1.32 4 0.16 1.6 4.5 -3.12 5.78 -3s0.4 0.16 -3.86 3.62a0.42 0.42 0 0 0 0 0.58c0.4 0.52 0.32 0 4.72 -2.46 0.42 -0.26 0.76 -0.3 0.86 -0.22s0 0.18 0 0.5a22.48 22.48 0 0 1 -3.22 3.06 0.36 0.36 0 0 0 0 0.44c0.24 0.36 0.64 0 1.02 -0.28 2.12 -1.46 2.74 -1.64 2.9 -1.52s0 0.26 -0.24 0.66A7.06 7.06 0 0 1 177.44 58a9.88 9.88 0 0 0 -1.78 1.2 114.1 114.1 0 0 0 -6.68 16.98c-1.72 4.52 -1.8 12.64 -4.92 18.74 -9.06 14.92 -26.28 1.4 -12.06 -17.48zm26 -13.42c0.9 0.26 6 -2 6.78 -2.42a9.72 9.72 0 0 1 0.88 3.78 34.6 34.6 0 0 0 -3.16 3.7 112.26 112.26 0 0 0 -11.62 5.08 88.4 88.4 0 0 1 5.1 -12.78c0.72 1.14 1.58 2.48 2.16 2.62zm28 -27.14c-5.56 -7.64 -5.84 -4 -4.62 -7.2a16.14 16.14 0 0 1 4.7 5.38c0.18 0.26 0.16 1.1 0.1 1.82zm-0.8 1.36a19.8 19.8 0 0 1 -6.5 -2.68c0.46 -0.86 1.24 -2.46 1.58 -3.2a27.18 27.18 0 0 1 5.1 5.88zm2.88 20.18c0 2 -1.5 1.42 -2.9 2.46 -1.04 0.9 -0.48 2.18 0.12 4.36a63.82 63.82 0 0 1 -5.3 14.94 120.92 120.92 0 0 1 -12.84 -13.68 15.32 15.32 0 0 0 -1.16 -5.42c0.86 -0.4 1.64 -0.94 1.62 -2s-4 -10.32 -4.26 -11.04a21.28 21.28 0 0 0 7.5 -3.42 4.74 4.74 0 0 0 -0.7 2.8 0.46 0.46 0 0 0 0.9 0 2.74 2.74 0 0 1 1.88 -2.38c0.86 -0.2 0.58 -1.9 -0.78 -1.42a25.6 25.6 0 0 0 6 -7.08 19.04 19.04 0 0 0 7.32 2.98 104.88 104.88 0 0 1 2.78 18.9zM186 58.8c0 0.36 0 0.44 -0.24 0.62s-6.4 2.78 -7.26 2.94a24.36 24.36 0 0 1 -1.52 -2.54 11.8 11.8 0 0 0 4.26 -3.46c0.68 -0.9 1.44 -2 0.74 -2.92a1.32 1.32 0 0 0 -0.46 -0.34 1.64 1.64 0 0 0 -0.92 -2.38 1.64 1.64 0 0 0 -0.7 -1.04c-1.7 -1.1 -4.3 1.1 -5.78 2.36a12.98 12.98 0 0 0 -0.46 -1.78c-0.38 -1.14 -0.8 -2.22 -2 -2.28a17.4 17.4 0 0 1 -1.8 -4.46c0 -0.48 0.12 -0.76 0.8 -1.12A77.22 77.22 0 0 1 178 39.56c0.88 1.64 7.8 18.44 8 19.24zM156 102.62a7.26 7.26 0 0 0 2.22 3.66c0.64 0.54 2 1.66 3.12 1.22 0.24 0 8.34 -4 10.3 -4.94 0.78 4.52 3.56 25.64 3.8 27.44A58.22 58.22 0 0 1 154 102.72a8 8 0 0 0 2.1 -0.1zm16.98 -0.62c5.44 -3.64 6.18 -3.66 5.76 -4.3s0.82 -0.24 -15.76 7.12a7.46 7.46 0 0 0 -1.16 -4.9 16.76 16.76 0 0 0 5.78 -11.06 116.88 116.88 0 0 1 2.74 -12.42 118.58 118.58 0 0 1 12.16 -5.86c1.34 2.86 6.56 12.78 8 15.08a0.3 0.3 0 0 0 0.3 0.14c0.3 0 0 0.6 2.98 -9.86a73.7 73.7 0 0 1 5.72 5.74c0.2 2.64 1.76 9.7 1.3 10.78 -0.16 0.36 -0.52 0.64 -0.88 0.4s-1.16 0.52 -0.58 0.92a2 2 0 0 0 2.5 -0.52c0.86 -1.1 0.42 -2.7 0.22 -4.28 -0.24 -2 -0.76 -6 -1.08 -7.38 0.68 -1.38 2 -4.64 2.7 -6a43.56 43.56 0 0 0 4.84 7.34 0.3 0.3 0 0 0 0.52 -0.14 97.64 97.64 0 0 0 1.48 -14.16 46 46 0 0 1 34.14 12.74c0.24 0.36 0 0.72 -0.12 1.26 -8.92 20.72 -8.74 20.22 -9.28 20.32 -0.22 0 -0.56 -0.16 -1.04 -0.6 0 0 -5.28 -4.16 -6.42 -4.96 -0.44 -2.18 -0.92 -4.52 -1.32 -6.92 -0.12 -0.68 -1.16 -0.46 -1.06 0.22 0.9 5.28 6.92 35.34 8.2 40a53.8 53.8 0 0 1 -56.68 0.26c-0.44 -4.86 -3.48 -26 -3.96 -28.96zm55.18 -2.78c5.54 4.52 6.22 5.34 7.44 5a2.3 2.3 0 0 0 1.36 -1.16 13.08 13.08 0 0 0 19.42 -0.16A58.86 58.86 0 0 1 234.64 130c-0.92 -5.12 -6.44 -30.58 -6.48 -30.82zM202 28.5a15.22 15.22 0 0 0 0.66 -2.36 12.86 12.86 0 0 1 3.16 5.74 10.56 10.56 0 0 0 -3.82 -3.38zm76 45.76a20.58 20.58 0 0 0 -6.36 0.38 99.22 99.22 0 0 0 -6.84 11.46c-7.36 13.44 -8.32 15.12 -10.36 16.86a11.74 11.74 0 0 1 -16.5 -1.52c0.66 -1.5 5.34 -11.5 7.44 -16.7 2 2.2 2.88 3 3.28 3.04a2 2 0 0 0 1.5 -0.58c4 -3.42 14.82 -13.42 17.26 -16.84 1.3 -1.8 1.14 -4 3.6 -6a11.62 11.62 0 0 1 0.16 2.38c0 2.34 6 -1.6 10.14 0.12 1.78 0.96 1.7 1.34 1.7 1.34s-1 0.62 -6.38 0.36a0.56 0.56 0 0 0 0 1.12c1.68 0.14 6.22 -0.46 6.3 1.08s-4.32 0.74 -7.04 0.68a0.56 0.56 0 0 0 -0.12 1.1c0.76 0 5.2 0.16 5.5 0.98 0 0.12 0 0.3 -0.28 0.54 -0.72 0.64 -2.2 0.22 -3 0.2zM168.34 42.98a22.88 22.88 0 0 0 2.16 5.46c-1.8 1.54 0 4.58 -0.78 6.6 -1.18 2.96 -8.88 7.72 -18.84 21.6a57.46 57.46 0 0 1 17.46 -33.66z" stroke-width="1"/><path d="M209.08 105.38c0.44 1.6 0.68 1.46 8.66 4.46a0.68 0.68 0 0 0 0.78 -0.3c2.8 -4.5 5.46 -5.1 5.56 -7.78a62.12 62.12 0 0 0 -2.54 -10.18 3 3 0 0 0 -2.52 -0.36c-2.26 0.32 -4.68 0.8 -6.94 1.26 -5.82 1.16 -5.8 1.26 -5.78 1.6 0.04 0.72 2.16 9.92 2.78 11.3zm-1.28 -10.7c1.12 -0.16 12 -2 12.46 -2a11.34 11.34 0 0 1 0.68 2c-2.58 0.22 -10.74 1.6 -12.68 2.14a20 20 0 0 1 -0.46 -2.14zm0.76 3.36c2 -0.34 10.2 -1.84 12.7 -2 1.84 6.86 1.78 6 -0.2 8.24 -1.12 1.28 -2.64 3.02 -3.42 4.16 -7.46 -2.74 -7.22 -2.42 -7.5 -3.32 -0.14 0 0.24 -0.06 -1.58 -7.12z" stroke-width="1"/></g></svg>